<?xml version="1.0" standalone="no"?>
<!DOCTYPE svg PUBLIC "-//W3C//DTD SVG 20010904//EN"
 "http://www.w3.org/TR/2001/REC-SVG-20010904/DTD/svg10.dtd">
<svg version="1.0" xmlns="http://www.w3.org/2000/svg"
 width="1169.000000pt" height="1169.000000pt" viewBox="0 0 1169.000000 1169.000000"
 preserveAspectRatio="xMidYMid meet">

<g transform="translate(0.000000,1169.000000) scale(0.100000,-0.100000)"
fill="#000000" stroke="none">
<path d="M5475 11679 c-917 -54 -1839 -343 -2645 -827 -1402 -843 -2396 -2254
-2715 -3857 -77 -389 -108 -718 -108 -1150 -1 -494 35 -821 143 -1305 338
-1520 1315 -2872 2674 -3699 139 -84 180 -104 143 -67 -14 15 -12 66 3 66 4 0
11 11 14 25 4 14 10 25 15 25 4 0 16 26 27 58 10 31 29 74 41 94 13 21 23 43
23 50 0 20 24 78 32 78 4 0 8 -22 8 -50 0 -27 -4 -50 -8 -50 -4 0 -16 -24 -26
-52 -11 -29 -23 -57 -27 -62 -5 -6 -9 -23 -9 -38 0 -15 -4 -28 -10 -28 -5 0
-10 -6 -10 -14 0 -22 -33 -120 -42 -127 -9 -6 230 -136 337 -184 167 -75 288
-125 292 -121 2 2 -3 11 -12 20 -15 14 -15 16 -1 16 9 0 16 5 16 10 0 6 11 10
25 10 16 0 25 6 25 15 0 8 5 15 10 15 6 0 10 -7 10 -15 0 -8 5 -15 10 -15 6 0
10 11 10 25 0 14 -4 25 -10 25 -5 0 -10 7 -10 16 0 11 8 14 28 12 21 -2 28 -9
30 -31 2 -19 -1 -27 -12 -27 -9 0 -16 -4 -16 -10 0 -5 5 -10 10 -10 6 0 10 -7
10 -15 0 -9 9 -15 24 -15 20 0 36 -16 36 -36 0 -2 -13 -4 -29 -4 -16 0 -31 -6
-35 -15 -3 -9 0 -15 9 -15 8 0 15 -4 15 -9 0 -17 240 -102 495 -175 113 -32
430 -106 456 -106 9 0 11 32 6 126 l-5 126 109 -7 c94 -6 112 -4 139 11 16 10
30 22 30 26 0 4 6 8 14 8 8 0 21 7 29 14 25 25 86 56 111 56 37 0 47 -21 42
-86 -3 -33 -3 -50 0 -39 2 11 13 38 23 60 10 22 26 65 36 95 16 50 67 127 105
157 8 7 41 13 73 13 54 0 60 -2 92 -37 19 -21 37 -50 41 -65 3 -16 13 -34 22
-40 9 -7 26 -31 37 -53 34 -68 62 -87 52 -36 -6 28 -61 118 -82 133 -6 5 -3 8
7 8 9 0 35 -18 58 -40 49 -48 76 -64 85 -50 3 5 15 10 25 10 10 0 20 4 22 9 2
5 18 12 37 16 33 7 34 6 18 -9 -9 -10 -17 -21 -17 -25 0 -4 -8 -16 -19 -27
-23 -25 -38 -84 -21 -84 16 0 32 19 52 63 10 20 22 37 26 37 5 0 14 11 20 25
6 14 18 25 27 25 8 0 15 4 15 10 0 19 78 90 99 90 11 0 21 3 21 8 0 15 63 34
116 36 53 1 55 0 104 -54 28 -30 53 -64 56 -77 4 -13 10 -23 15 -23 5 0 9 -9
9 -19 0 -10 7 -21 15 -25 8 -3 15 -14 15 -25 0 -11 11 -32 24 -46 14 -15 27
-32 29 -38 2 -7 7 -9 11 -5 4 3 3 15 -3 26 -15 29 -14 62 3 62 7 0 27 7 42 15
16 8 41 15 57 15 15 0 27 5 27 10 0 6 15 10 33 10 18 0 39 6 46 13 11 9 14 9
18 0 3 -7 11 -13 18 -13 7 0 26 -7 41 -15 16 -8 37 -15 47 -15 9 0 17 -4 17
-10 0 -5 13 -10 28 -10 15 0 39 -5 53 -12 23 -11 25 -16 22 -62 -3 -28 -7 -58
-11 -66 -3 -8 -11 -53 -17 -100 -7 -47 -15 -93 -19 -102 -6 -14 -3 -18 13 -18
15 0 21 7 22 23 1 16 2 18 6 5 8 -31 58 -23 92 15 17 17 31 40 31 50 0 9 4 17
9 17 5 0 12 12 16 27 3 15 10 30 14 33 15 12 41 61 41 80 0 11 5 20 10 20 6 0
10 9 10 20 0 58 71 150 115 150 22 0 26 4 22 20 -3 11 -1 20 4 20 5 0 9 -16 9
-35 0 -19 -4 -35 -10 -35 -5 0 -12 -11 -16 -25 -3 -14 -10 -25 -15 -25 -5 0
-9 -11 -9 -25 0 -14 5 -25 10 -25 6 0 10 -19 10 -43 0 -30 -6 -48 -20 -60 -13
-11 -20 -29 -20 -53 0 -27 -5 -37 -20 -41 -20 -5 -37 -39 -26 -51 4 -3 52 5
108 19 l101 24 15 45 c8 25 19 54 23 65 11 24 7 375 -3 375 -5 0 -8 36 -8 80
0 44 4 80 9 80 4 0 11 36 15 81 4 44 10 88 15 97 21 42 30 70 36 115 4 27 15
69 25 93 11 24 23 65 29 91 12 60 37 162 56 229 8 28 15 65 15 82 0 18 4 51
10 74 5 24 16 73 25 110 8 37 15 84 15 105 0 21 5 54 11 73 21 65 30 125 35
210 2 47 8 139 14 205 17 212 21 338 12 412 -8 71 5 223 21 239 4 4 7 23 7 42
0 33 9 72 31 128 4 13 3 26 -4 33 -9 9 -8 16 1 31 6 11 12 51 12 88 0 38 5 94
11 123 7 30 12 72 13 94 1 39 2 40 39 43 24 2 37 8 37 18 0 8 -6 14 -14 14
-22 0 -26 27 -7 44 10 9 21 13 24 9 17 -17 5 27 -13 47 -12 13 -19 29 -16 36
3 8 -3 10 -16 6 -11 -2 -22 -11 -25 -18 -3 -8 -11 -14 -19 -14 -17 0 -19 17
-2 22 6 2 13 15 15 28 2 14 10 28 19 33 20 11 34 48 25 67 -4 8 -5 28 -2 43 6
28 6 28 26 8 65 -64 135 -147 135 -159 0 -5 11 -18 24 -29 13 -11 29 -34 37
-52 8 -17 17 -31 21 -31 5 0 8 -7 8 -15 0 -9 7 -18 15 -21 8 -4 12 -10 9 -15
-3 -5 1 -9 8 -9 7 0 19 -9 26 -20 6 -11 18 -17 24 -15 7 3 22 -7 33 -22 11
-15 27 -34 35 -43 21 -22 40 -67 40 -95 0 -14 4 -25 8 -25 9 0 7 -196 -3 -290
-4 -30 -9 -84 -12 -120 -3 -37 -16 -89 -30 -120 -13 -30 -31 -71 -40 -90 -8
-19 -19 -43 -24 -52 -5 -10 -9 -24 -9 -32 0 -17 -79 -124 -133 -179 -20 -21
-37 -44 -37 -51 0 -22 -88 -176 -100 -176 -3 0 -23 -38 -45 -84 l-40 -84 -55
-8 -55 -8 36 -9 c44 -12 64 -39 49 -67 -6 -10 -13 -46 -17 -80 -3 -33 -10 -63
-14 -66 -5 -3 -9 -16 -9 -29 0 -13 -4 -26 -9 -29 -5 -4 -12 -30 -16 -59 -4
-28 -11 -56 -15 -62 -10 -14 -28 -160 -35 -275 -3 -52 -10 -96 -15 -98 -6 -2
-10 -12 -10 -22 0 -10 -4 -21 -9 -24 -5 -3 -12 -44 -16 -92 -5 -63 -12 -91
-25 -104 -10 -10 -27 -39 -39 -64 -11 -25 -26 -46 -34 -46 -22 0 -27 -22 -27
-111 0 -64 -4 -83 -19 -98 -10 -10 -21 -31 -25 -47 -4 -16 -13 -32 -19 -36 -6
-4 -9 -10 -5 -13 7 -8 48 16 48 28 0 5 7 16 16 24 13 14 17 14 24 2 6 -8 5
-16 -2 -20 -13 -8 -22 -467 -10 -487 6 -9 27 -6 90 14 78 25 82 28 82 55 0 27
1 28 23 17 12 -7 24 -16 27 -20 14 -18 462 164 710 288 600 301 1059 632 1536
1108 297 298 502 544 716 861 949 1408 1238 3145 797 4800 -156 585 -432 1192
-774 1705 -222 334 -433 589 -739 895 -240 240 -393 373 -631 552 -729 548
-1593 921 -2495 1078 -426 74 -923 100 -1375 74z m289 -484 c-14 -10 -47 -14
-121 -15 -56 0 -104 -4 -107 -9 -4 -5 -25 -12 -47 -16 -39 -7 -59 -18 -101
-57 -10 -10 -22 -18 -27 -18 -5 0 -11 -7 -15 -15 -4 -12 3 -15 37 -15 51 0
143 26 154 43 15 23 126 67 168 67 37 0 74 16 88 38 6 8 42 12 123 12 103 0
114 -2 100 -15 -8 -8 -18 -15 -21 -15 -13 0 -86 -62 -80 -68 3 -3 30 7 60 23
45 22 58 25 70 15 10 -9 15 -9 15 -1 0 6 11 11 25 11 16 0 25 -6 25 -15 0 -8
5 -15 10 -15 6 0 10 6 10 14 0 8 -4 18 -10 21 -5 3 -10 13 -10 21 0 11 17 14
79 14 44 0 83 -4 86 -10 3 -5 18 -10 32 -10 15 0 40 -4 57 -10 17 -5 43 -12
59 -15 15 -3 27 -11 27 -19 0 -9 -29 -17 -97 -26 -54 -7 -100 -16 -103 -20
-10 -15 -102 -40 -143 -40 -23 1 -60 7 -82 15 -48 17 -84 19 -121 5 -45 -17
-60 -4 -27 24 l28 24 -27 -5 c-20 -4 -28 0 -33 16 -7 23 -35 29 -35 8 0 -10
-15 -12 -59 -9 -36 3 -61 0 -65 -7 -4 -6 -19 -11 -34 -11 -15 0 -47 -11 -72
-24 -25 -13 -63 -33 -85 -45 -21 -11 -46 -21 -55 -21 -9 0 -25 -7 -36 -15 -16
-13 -17 -16 -4 -25 8 -5 11 -10 5 -10 -5 -1 1 -6 15 -12 23 -10 20 -12 -35
-21 -33 -5 -62 -13 -65 -16 -3 -4 -22 -15 -42 -24 -21 -10 -38 -22 -38 -26 0
-4 -16 -16 -35 -27 -19 -10 -35 -22 -35 -26 0 -5 -5 -8 -10 -8 -10 0 -21 -7
-54 -37 -26 -23 -117 -75 -123 -70 -11 11 130 187 150 187 3 0 21 15 39 33 18
17 48 44 66 60 19 15 29 27 23 27 -22 0 -87 -36 -104 -57 -10 -13 -23 -23 -28
-23 -8 0 -24 -12 -74 -57 -11 -10 -36 -38 -55 -63 -19 -25 -38 -46 -42 -48 -5
-2 -8 -10 -8 -18 0 -8 -4 -14 -10 -14 -14 0 -13 23 2 38 6 6 9 15 5 19 -8 8
-47 -31 -47 -47 0 -5 -4 -10 -9 -10 -5 0 -12 -9 -16 -19 -3 -11 -12 -22 -20
-25 -11 -4 -8 7 8 42 12 26 25 49 28 52 4 3 9 15 13 28 4 12 12 22 17 22 5 0
9 7 9 15 0 8 5 15 10 15 6 0 10 4 10 10 0 16 49 59 75 66 14 3 25 10 25 15 0
5 7 9 15 9 8 0 15 5 15 10 0 6 -13 10 -30 10 -16 0 -30 -4 -30 -10 0 -5 -9
-10 -20 -10 -11 0 -20 -4 -20 -10 0 -5 -7 -10 -15 -10 -8 0 -25 -11 -37 -25
-12 -14 -27 -25 -33 -25 -6 0 -22 -11 -35 -25 -13 -14 -29 -25 -37 -25 -7 0
-13 -7 -13 -15 0 -8 -5 -15 -10 -15 -6 0 -16 -4 -23 -10 -7 -5 -27 -21 -44
-36 -27 -21 -33 -33 -33 -64 0 -21 -6 -43 -15 -50 -12 -10 -15 -10 -15 1 0 11
-2 11 -10 -1 -5 -8 -10 -27 -10 -41 0 -23 -38 -68 -58 -69 -16 -1 -51 -39 -57
-63 -4 -14 -15 -33 -26 -43 -10 -9 -19 -29 -19 -43 -1 -24 -2 -24 -14 -8 -29
37 -43 11 -49 -87 -4 -51 -23 -57 -31 -10 -6 27 -3 41 9 54 9 10 14 23 11 29
-4 6 0 21 7 33 8 13 20 48 27 78 7 30 16 64 21 75 32 79 51 115 59 115 6 0 10
7 10 16 0 8 16 30 35 48 19 19 35 36 35 40 0 4 11 18 25 32 14 14 25 29 25 34
0 5 33 42 73 83 39 40 81 85 91 99 14 18 33 29 60 34 23 4 48 14 56 23 19 20
77 51 96 51 8 0 22 4 32 9 9 5 46 14 82 20 116 20 125 22 145 32 21 9 105 13
349 17 125 2 138 0 120 -13z m316 -10 c0 -9 -6 -12 -15 -9 -8 4 -15 10 -15 15
0 5 7 9 15 9 8 0 15 -7 15 -15z m-17 -167 c20 1 37 -3 37 -8 0 -6 -13 -10 -29
-10 -17 0 -32 -4 -35 -9 -6 -9 -21 -13 -106 -32 -106 -23 -100 -24 -100 5 0
41 71 69 150 58 25 -3 62 -5 83 -4z m622 -10 c50 -18 52 -28 4 -28 -46 0 -69
13 -69 38 0 10 6 12 18 7 9 -4 31 -12 47 -17z m-905 -37 c5 -11 10 -29 10 -40
0 -18 -6 -21 -40 -21 -22 0 -40 5 -40 10 0 12 -44 13 -68 1 -37 -19 -68 -30
-92 -34 -14 -2 7 -2 45 1 39 3 108 6 155 8 47 1 116 6 154 9 53 6 70 4 77 -6
6 -10 31 -14 84 -14 41 0 75 -2 75 -5 0 -3 -10 -14 -22 -25 -20 -17 -37 -19
-133 -18 -60 1 -103 -1 -95 -4 16 -7 40 -29 40 -36 0 -3 -62 -7 -137 -9 -126
-4 -142 -7 -188 -31 -27 -15 -56 -27 -63 -27 -7 0 -20 -4 -30 -9 -43 -22 -70
-30 -112 -35 -25 -3 -60 -8 -77 -11 -22 -5 -33 -3 -33 4 0 6 7 11 15 11 8 0
15 5 15 10 0 6 11 10 25 10 18 0 25 5 25 20 0 11 5 20 11 20 6 0 4 7 -5 15
-17 17 -36 20 -36 5 0 -5 -16 -10 -35 -10 -40 0 -47 17 -10 26 14 3 25 10 25
15 0 5 5 9 11 9 6 0 17 7 25 15 9 8 24 15 34 15 10 0 25 11 34 25 9 14 23 25
31 25 8 0 15 3 15 8 0 13 110 49 183 59 20 3 37 9 37 13 0 8 18 12 67 19 7 0
17 -8 23 -18z m370 -1 c0 -5 -4 -10 -10 -10 -5 0 -10 5 -10 10 0 6 5 10 10 10
6 0 10 -4 10 -10z m220 0 c0 -5 -7 -10 -15 -10 -8 0 -15 5 -15 10 0 6 7 10 15
10 8 0 15 -4 15 -10z m-80 -30 c0 -5 -2 -10 -4 -10 -3 0 -8 5 -11 10 -3 6 -1
10 4 10 6 0 11 -4 11 -10z m80 -21 c0 -5 -7 -9 -15 -9 -8 0 -15 7 -15 15 0 9
6 12 15 9 8 -4 15 -10 15 -15z m107 15 c-3 -3 -12 -4 -19 -1 -8 3 -5 6 6 6 11
1 17 -2 13 -5z m78 -14 c4 -6 -6 -10 -24 -10 -16 0 -33 5 -36 10 -4 6 6 10 24
10 16 0 33 -4 36 -10z m310 -16 l30 -27 -44 6 c-42 5 -65 22 -55 39 10 16 39
8 69 -18z m-548 -15 c35 -6 63 -15 63 -20 0 -5 7 -9 15 -9 8 0 15 -4 15 -10 0
-5 -11 -10 -24 -10 -14 0 -28 5 -31 10 -3 6 -17 10 -30 10 -13 0 -27 5 -30 10
-3 6 -19 10 -36 10 -16 0 -29 5 -29 10 0 13 9 13 87 -1z m-117 -19 c0 -5 -7
-10 -16 -10 -8 0 -12 5 -9 10 3 6 10 10 16 10 5 0 9 -4 9 -10z m25 -46 c17 -9
42 -13 58 -10 28 6 38 -10 12 -20 -33 -13 -2 -55 64 -87 36 -18 139 -39 174
-36 40 3 54 -2 32 -10 -11 -5 -57 -7 -103 -6 -67 2 -88 7 -105 23 -28 26 -138
82 -163 83 -14 0 -12 4 9 13 l28 12 -48 27 c-46 26 -47 27 -18 27 17 0 44 -7
60 -16z m-185 -60 l25 -13 -25 -1 c-14 0 -38 9 -55 20 l-30 21 30 -7 c17 -4
41 -13 55 -20z m-100 -24 c0 -5 -12 -10 -26 -10 -14 0 -23 4 -19 10 3 6 15 10
26 10 10 0 19 -4 19 -10z m-60 -20 c0 -6 9 -10 19 -10 24 0 51 -10 51 -19 0
-7 -88 -3 -110 6 -8 3 -25 5 -37 4 -23 -2 -33 14 -13 21 26 8 90 7 90 -2z
m236 -42 c46 -12 86 -28 88 -35 7 -17 -6 -16 -48 1 -18 7 -53 17 -77 20 -82
13 -99 18 -93 27 8 14 39 11 130 -13z m232 -127 c3 -8 -1 -12 -9 -9 -7 2 -15
10 -17 17 -3 8 1 12 9 9 7 -2 15 -10 17 -17z m-898 -302 c70 -18 122 -24 93
-12 -7 2 -13 8 -13 13 0 11 39 20 45 11 2 -5 39 -11 81 -14 42 -3 80 -10 83
-15 13 -20 52 -32 103 -32 31 0 71 -9 97 -20 24 -11 62 -23 85 -26 22 -3 59
-12 81 -19 22 -8 52 -16 67 -19 38 -8 120 -93 113 -116 -4 -12 2 -24 15 -33
l21 -14 -26 -31 c-27 -32 -33 -62 -12 -62 6 0 30 -17 53 -38 30 -29 39 -43 34
-58 -11 -29 -1 -46 23 -38 15 5 19 3 14 -9 -7 -18 31 -31 59 -20 14 5 16 2 12
-19 -3 -17 1 -29 13 -36 15 -9 16 -17 8 -44 -13 -45 -11 -58 6 -58 8 0 15 -7
15 -15 0 -8 5 -15 11 -15 15 0 38 -31 39 -51 0 -9 11 -37 25 -63 l24 -46 -76
0 c-49 0 -82 -5 -92 -13 -9 -8 -47 -19 -86 -27 -38 -7 -81 -19 -95 -26 -46
-25 -121 -54 -141 -54 -11 0 -22 -6 -25 -14 -3 -8 -11 -13 -18 -10 -6 2 -35
-7 -64 -21 -28 -14 -54 -25 -57 -25 -3 0 -19 -10 -34 -21 -16 -12 -34 -19 -39
-15 -17 10 -124 -44 -118 -60 4 -10 -2 -14 -19 -14 -13 0 -133 -9 -267 -21
-468 -39 -466 -39 -453 -18 3 4 -2 12 -12 18 -25 13 -241 21 -335 12 -43 -3
-87 -3 -98 1 -27 10 -50 0 -50 -23 0 -10 -3 -19 -7 -19 -5 0 -23 -14 -42 -30
l-34 -30 92 0 c72 0 93 3 97 15 4 10 18 15 43 14 24 -1 29 -3 13 -6 -14 -3
-22 -10 -18 -18 3 -9 -7 -15 -31 -20 -72 -13 -108 -61 -64 -85 11 -5 27 -17
36 -26 12 -13 19 -14 28 -5 14 14 77 15 77 1 0 -5 6 -10 13 -10 18 0 94 -37
102 -50 8 -12 47 -3 57 14 4 6 11 7 15 2 4 -5 2 -11 -4 -13 -7 -3 -13 -16 -13
-29 0 -13 -6 -24 -12 -24 -10 0 -9 -3 1 -9 11 -7 8 -10 -10 -16 -12 -4 -30
-16 -38 -26 -9 -10 -40 -24 -70 -32 -52 -12 -82 -37 -46 -37 9 0 13 -4 10 -10
-3 -5 -15 -10 -27 -10 -11 0 -32 -6 -46 -14 -15 -8 -54 -27 -86 -43 -75 -36
-226 -177 -208 -195 13 -13 43 -13 117 -1 43 7 51 12 59 38 29 93 43 112 79
117 34 4 35 3 46 -45 22 -98 79 -136 184 -124 26 4 47 4 47 1 0 -11 -50 -53
-86 -73 -36 -19 -37 -20 -9 -15 63 14 165 69 165 90 0 5 -5 3 -12 -4 -16 -16
-38 -15 -38 2 0 8 12 17 28 20 15 3 62 16 105 28 l78 22 -2 45 c-2 28 1 46 9
49 7 2 12 10 12 18 0 8 5 14 12 14 9 0 9 3 0 12 -9 9 -8 16 5 30 10 12 17 39
18 76 3 81 4 82 19 82 33 0 35 -24 10 -145 -14 -66 -34 -144 -45 -173 -10 -29
-19 -60 -19 -68 0 -9 -6 -30 -14 -47 -8 -18 -30 -66 -49 -109 -19 -42 -54 -98
-78 -124 -39 -43 -41 -46 -12 -26 52 37 95 105 143 231 17 44 37 85 45 91 8 7
15 26 15 42 0 18 8 36 21 47 17 14 23 34 30 107 15 160 17 167 74 186 54 18
104 22 154 12 l31 -6 -25 -20 c-28 -22 -32 -38 -11 -38 8 0 31 -16 52 -35 l37
-35 -7 -187 c-4 -102 -9 -190 -12 -195 -9 -15 20 -82 46 -104 20 -18 24 -30
22 -69 -1 -26 2 -64 7 -86 7 -31 5 -41 -9 -54 -9 -8 -24 -13 -33 -9 -11 4 -39
-16 -86 -60 -38 -36 -82 -68 -98 -72 -15 -4 -35 -13 -44 -20 -8 -8 -30 -19
-47 -25 -18 -6 -32 -17 -32 -25 0 -25 -28 -27 -65 -5 -20 12 -45 21 -56 21
-22 0 -79 -53 -79 -75 0 -7 -5 -15 -12 -17 -7 -3 -12 -24 -11 -56 1 -48 5 -56
45 -98 37 -37 49 -44 70 -39 15 4 31 19 39 37 8 17 26 37 41 46 27 16 29 16
44 -6 8 -12 25 -22 38 -22 26 0 61 -33 52 -49 -4 -6 1 -22 10 -36 15 -22 19
-24 33 -12 9 8 23 12 31 9 20 -7 83 -54 93 -69 4 -7 15 -13 23 -13 15 0 90
-46 129 -80 11 -10 32 -20 46 -24 15 -3 30 -13 33 -22 5 -13 1 -15 -21 -9 -53
13 -118 12 -158 -3 -22 -8 -54 -15 -71 -17 -18 -2 -50 -17 -73 -33 -33 -24
-49 -29 -75 -25 -25 4 -44 -2 -82 -25 -27 -17 -54 -40 -61 -51 -11 -17 -16
-18 -52 -7 -22 6 -43 15 -47 19 -14 14 -41 7 -80 -21 -34 -25 -46 -28 -95 -25
-50 4 -59 2 -96 -29 -33 -26 -44 -43 -53 -83 -18 -76 -11 -118 22 -129 46 -16
105 10 179 80 45 43 78 66 107 74 35 9 271 23 372 22 14 -1 63 -1 109 -1 138
-1 183 -28 124 -75 -63 -49 -105 -66 -197 -76 -50 -6 -118 -17 -151 -25 -100
-23 -165 -35 -194 -35 -40 0 -45 -23 -10 -44 34 -20 35 -28 13 -66 -19 -32
-13 -60 13 -60 10 0 27 -7 37 -15 11 -8 32 -15 46 -15 14 0 31 -5 36 -10 7 -7
20 -7 41 0 42 15 224 -4 271 -29 49 -25 59 -29 92 -36 19 -4 40 -10 45 -13 6
-4 17 -8 26 -9 40 -6 68 -23 63 -37 -3 -9 5 -25 20 -39 14 -13 26 -29 26 -34
0 -12 -106 -37 -120 -28 -5 3 -10 -1 -10 -10 0 -9 -9 -26 -21 -38 -11 -12 -25
-32 -29 -43 -9 -23 -66 -39 -85 -24 -5 4 -36 10 -67 13 -51 4 -63 1 -110 -27
-29 -18 -61 -35 -71 -39 -13 -5 -16 -13 -12 -27 8 -24 -30 -62 -90 -90 -22
-11 -52 -34 -67 -53 -23 -29 -34 -35 -80 -40 -53 -5 -89 4 -168 41 -19 10 -37
20 -40 23 -3 3 -12 8 -20 12 -8 4 -22 11 -30 15 -45 26 -65 33 -108 38 -26 4
-51 12 -57 19 -5 6 -28 18 -50 25 -60 20 -162 128 -207 220 -49 103 -85 211
-114 349 -30 146 -84 390 -155 706 -5 22 -13 145 -17 272 -7 219 -9 234 -30
263 l-23 30 38 1 38 1 -44 9 c-70 14 -87 37 -116 154 -35 141 -87 290 -111
311 -12 12 -20 24 -18 27 3 3 1 14 -5 26 -9 16 -7 32 9 73 11 29 20 54 20 55
0 4 -91 -5 -131 -13 -21 -3 -39 -2 -42 3 -12 19 20 45 83 67 59 20 67 26 87
66 12 25 25 50 30 55 4 6 9 17 11 25 9 40 78 87 162 110 92 25 85 3 87 248 2
203 4 223 28 295 14 43 25 88 25 100 0 12 16 42 35 66 19 24 35 48 35 52 0 5
8 17 18 27 9 9 26 31 37 49 26 42 129 157 184 208 25 22 90 84 145 137 56 54
112 105 126 115 14 9 28 21 31 25 7 11 132 54 174 61 17 3 44 8 60 12 47 10
228 23 245 17 8 -2 49 -13 90 -23z m1193 -1176 c15 -2 25 -8 22 -13 -5 -8 42
-20 81 -20 13 0 54 -10 91 -22 65 -21 103 -46 103 -68 0 -5 4 -10 9 -10 5 0
12 -16 15 -35 7 -34 17 -39 62 -34 10 1 33 -35 34 -52 0 -9 -7 -20 -16 -23
-26 -10 -54 12 -54 42 0 21 -2 24 -10 12 -5 -8 -10 -25 -10 -38 0 -34 -24 -22
-28 14 -5 52 -23 116 -36 130 -20 19 -120 62 -162 68 -20 4 -40 9 -46 12 -5 3
-61 10 -126 15 -131 9 -125 9 -171 6 -20 -1 -36 3 -38 10 -3 9 27 12 124 12
70 -1 140 -3 156 -6z m-453 -28 c-38 -28 -42 -29 -57 -14 -12 12 -118 -5 -128
-21 -3 -4 0 -31 7 -59 13 -58 7 -71 -25 -52 -11 8 -22 10 -24 5 -2 -5 -14 -27
-26 -49 -23 -39 -24 -40 -75 -37 -39 2 -52 -1 -52 -11 0 -8 -7 -20 -15 -27 -8
-7 -12 -16 -10 -21 3 -4 -3 -22 -14 -40 -11 -17 -17 -37 -15 -43 8 -22 -41
-96 -63 -97 -19 0 13 -138 32 -140 5 -1 18 -1 27 0 14 2 17 -5 16 -26 -1 -15
-5 -33 -10 -39 -5 -6 -4 -23 2 -38 5 -14 6 -26 1 -26 -22 0 -147 327 -139 367
2 10 12 19 23 22 30 5 36 23 14 39 -10 7 -19 22 -19 33 0 10 -7 19 -15 19 -21
0 -19 33 5 80 21 40 78 81 142 101 126 40 361 97 402 98 l50 1 -34 -25z m-555
-45 c16 -7 17 -9 3 -9 -9 -1 -20 -10 -23 -22 -5 -15 -13 -19 -27 -16 -26 7
-66 -11 -73 -34 -7 -22 8 -54 30 -63 19 -7 20 -32 1 -39 -7 -3 -16 -20 -20
-39 -6 -30 -8 -31 -20 -15 -16 20 -24 21 -45 4 -9 -7 -44 -19 -79 -26 -35 -7
-76 -17 -90 -23 -15 -6 -41 -13 -59 -15 -30 -3 -32 -1 -38 34 -10 61 -21 79
-62 98 -30 15 -34 20 -18 23 10 2 21 -1 23 -7 2 -6 16 -11 32 -11 19 0 35 -9
49 -25 15 -20 25 -24 45 -19 31 7 31 7 9 60 -10 24 -27 45 -42 52 -34 15 -58
52 -41 62 20 13 106 22 265 30 83 4 152 7 155 8 3 0 14 -3 25 -8z m808 -66
c15 -8 38 -14 50 -12 21 3 22 -1 22 -59 0 -33 3 -65 8 -69 10 -11 9 -26 -2
-19 -6 3 -13 -1 -18 -8 -16 -28 -56 -38 -172 -41 -99 -3 -124 -6 -147 -23 -16
-11 -40 -22 -54 -25 -22 -4 -25 0 -26 24 -1 15 3 25 7 22 14 -8 10 10 -6 33
-8 12 -11 24 -6 27 5 3 12 18 15 32 10 37 45 64 77 57 15 -3 30 0 33 6 4 6 24
8 51 4 51 -7 69 6 80 58 11 49 14 51 38 28 12 -11 35 -27 50 -35z m-1702 6 c5
0 9 -4 9 -10 0 -5 -11 -10 -25 -10 -16 0 -25 6 -25 16 0 11 5 14 16 10 9 -3
20 -6 25 -6z m137 -17 c-10 -2 -26 -2 -35 0 -10 3 -2 5 17 5 19 0 27 -2 18 -5z
m2342 -101 c11 -10 26 -34 34 -54 8 -19 40 -61 71 -92 35 -35 50 -56 40 -56
-9 0 -45 29 -80 65 -35 36 -67 65 -71 65 -18 0 -54 45 -54 67 0 29 32 31 60 5z
m-1608 -84 c-6 -6 -15 -9 -18 -5 -4 3 -4 14 0 23 5 13 9 15 18 6 9 -9 9 -15 0
-24z m1379 -54 c10 -69 6 -159 -11 -264 -5 -30 -14 -89 -20 -130 -17 -106 -33
-136 -87 -160 -25 -11 -54 -20 -64 -20 -11 0 -27 -4 -37 -10 -9 -5 -44 -14
-77 -19 -33 -5 -91 -17 -130 -26 -51 -12 -127 -16 -285 -17 -184 -1 -220 1
-253 16 -23 10 -37 22 -34 29 3 7 -1 21 -9 32 -20 27 -17 35 11 35 24 0 25 1
20 73 -7 89 -7 93 -4 140 3 32 6 37 28 38 56 3 107 1 136 -6 23 -5 26 -4 15 4
-8 6 -11 11 -7 11 5 0 -1 13 -12 29 -22 30 -29 91 -11 91 6 0 10 9 10 20 0 17
26 40 47 40 4 0 9 -15 10 -33 3 -34 18 -71 42 -100 14 -17 13 -20 -8 -36 l-24
-18 23 -6 c12 -3 20 -11 18 -19 -5 -14 -48 -24 -48 -11 0 4 -16 9 -35 10 -19
2 -35 0 -35 -5 0 -12 172 -62 234 -68 33 -3 75 -12 94 -20 19 -8 44 -14 56
-14 11 0 34 -7 49 -15 44 -23 286 -7 270 18 -4 6 2 8 15 5 13 -4 22 -1 23 5 0
8 2 8 6 0 2 -7 -3 -20 -12 -29 -18 -19 -13 -29 10 -21 9 4 15 19 15 37 0 16 4
30 8 30 27 0 50 262 35 388 -5 40 -7 75 -4 77 11 12 23 -16 32 -81z m147 69
c-5 -25 -28 -28 -28 -4 0 12 6 21 16 21 9 0 14 -7 12 -17z m-748 -53 c22 -14
11 -17 -80 -22 -86 -5 -84 6 5 22 57 11 58 11 75 0z m1158 -226 c60 -62 119
-115 131 -119 21 -6 38 -46 27 -63 -9 -15 -296 278 -296 303 0 21 14 26 21 8
4 -10 57 -68 117 -129z m222 -260 c0 -2 -7 -4 -15 -4 -8 0 -15 4 -15 10 0 5 7
7 15 4 8 -4 15 -8 15 -10z m169 -48 c6 -4 11 -12 11 -17 0 -6 14 -30 31 -54
17 -23 35 -60 40 -81 10 -43 1 -222 -12 -230 -4 -2 -7 48 -6 113 2 114 -11
183 -34 183 -5 0 -9 5 -9 11 0 28 -64 48 -86 27 -14 -14 -54 -9 -54 7 0 8 -5
15 -11 15 -17 0 11 31 35 40 20 7 73 -1 95 -14z m-479 -57 c0 -11 5 -19 10
-19 6 0 10 -18 10 -40 0 -22 -4 -40 -9 -40 -15 0 -24 41 -13 52 7 7 4 20 -9
42 -23 37 -25 53 -4 36 8 -7 15 -21 15 -31z m-554 -25 c-20 -14 -20 -14 0 -29
18 -14 18 -14 -5 -15 -16 0 -21 -4 -17 -15 3 -8 1 -15 -4 -15 -6 0 -10 -9 -10
-21 0 -18 4 -20 28 -15 l27 7 -25 -21 c-14 -11 -28 -20 -32 -20 -5 0 -8 -7 -8
-15 0 -8 -4 -15 -10 -15 -14 0 -12 28 3 33 6 2 8 8 4 13 -5 5 -18 -3 -31 -18
-12 -16 -26 -28 -32 -28 -6 0 -20 -10 -32 -22 -12 -13 -33 -34 -47 -47 -15
-12 -24 -29 -21 -37 4 -9 -2 -14 -15 -14 -11 0 -17 -5 -14 -10 3 -6 -1 -13
-10 -16 -9 -4 -14 -13 -11 -20 3 -7 1 -16 -5 -20 -6 -3 -8 -12 -5 -20 3 -8 -1
-14 -10 -14 -28 0 -65 -32 -59 -50 3 -10 -1 -25 -10 -33 -8 -9 -15 -24 -15
-34 0 -24 -19 -43 -41 -43 -10 0 -25 -7 -33 -16 -14 -14 -14 -18 -1 -45 16
-29 13 -49 -6 -49 -13 0 -44 -31 -52 -52 -3 -9 0 -19 9 -22 28 -11 15 -28 -17
-21 -20 5 -34 3 -38 -4 -12 -18 -71 -1 -81 23 -4 12 -22 36 -40 53 -18 18 -38
40 -44 51 -6 11 -24 39 -41 63 -16 24 -30 46 -31 49 0 3 -6 19 -14 35 -7 17
-16 46 -21 65 -31 137 -37 172 -37 229 0 35 -6 74 -13 87 -7 13 -10 26 -8 29
3 2 90 5 194 6 179 1 223 4 420 29 136 18 265 49 265 64 0 5 3 6 7 2 5 -4 -1
-14 -11 -22z m54 -48 c0 -2 -7 -7 -16 -10 -8 -3 -12 -2 -9 4 6 10 25 14 25 6z
m940 -225 c0 -5 3 -16 6 -25 3 -9 2 -16 -4 -16 -5 0 -12 11 -14 25 -3 14 -1
25 3 25 5 0 9 -4 9 -9z m31 -117 c4 -5 6 -26 3 -45 -7 -45 9 -115 25 -111 14
3 11 -42 -7 -110 -15 -56 -85 -197 -98 -198 -7 0 -24 -16 -40 -35 -38 -49 -69
-67 -99 -59 -27 7 -34 24 -10 24 8 0 15 8 15 19 0 10 7 24 15 31 8 7 15 17 15
24 0 6 8 30 17 53 15 36 25 44 78 65 59 23 60 24 57 58 -8 90 -4 220 8 260 4
15 4 33 0 41 -5 7 -6 18 -2 24 4 5 8 1 10 -10 2 -11 8 -25 13 -31z m56 -71
c-3 -10 -5 -2 -5 17 0 19 2 27 5 18 2 -10 2 -26 0 -35z m-236 -220 c1 -10 1
-21 0 -25 0 -5 3 -8 7 -8 4 0 8 -10 9 -22 2 -22 2 -22 -9 -3 -16 29 -16 29
-32 16 -11 -9 -15 -8 -20 4 -3 8 -1 15 5 15 6 0 9 6 6 14 -7 16 1 26 20 26 7
0 14 -8 14 -17z m-1380 -106 c-10 -9 -11 -8 -5 6 3 10 9 15 12 12 3 -3 0 -11
-7 -18z m1040 -388 l-9 -44 -1 41 c-1 22 2 44 6 47 12 12 13 1 4 -44z m-19
-81 c-10 -22 -11 -21 -11 12 -1 26 2 31 11 22 8 -8 8 -17 0 -34z m-27 -105
c-11 -105 -17 -133 -26 -133 -5 0 -9 11 -9 25 0 14 4 25 8 25 5 0 9 8 9 18 -1
75 5 122 14 122 7 0 8 -19 4 -57z m-45 -277 c-11 -26 -20 -54 -20 -62 0 -8 -5
-14 -10 -14 -12 0 -2 79 12 96 5 7 8 16 7 20 -4 23 2 45 11 39 6 -3 11 0 11 7
1 7 4 1 6 -13 2 -14 -5 -47 -17 -73z m-2490 -563 c30 -21 70 -60 70 -68 0 -3
6 -13 13 -21 6 -8 17 -20 22 -27 6 -7 25 -31 44 -55 18 -23 45 -55 60 -70 14
-15 42 -46 62 -67 59 -65 161 -157 222 -200 129 -90 176 -127 267 -210 52 -48
106 -93 120 -100 14 -8 71 -60 128 -117 56 -57 115 -114 131 -128 41 -35 84
-97 76 -109 -3 -6 -1 -11 5 -11 7 0 10 -6 7 -12 -16 -44 -18 -60 -8 -54 6 4
11 2 11 -3 0 -6 -4 -11 -9 -11 -5 0 -14 -14 -21 -31 -7 -17 -16 -26 -20 -20
-4 8 -16 7 -41 -1 -18 -6 -40 -12 -46 -14 -7 -2 -13 -8 -13 -13 0 -17 30 -20
64 -6 30 13 35 13 40 -1 10 -25 7 -34 -9 -34 -8 0 -15 -5 -15 -11 0 -6 -12 -9
-27 -7 -20 2 -29 -2 -31 -14 -2 -12 3 -18 13 -18 14 0 16 -7 13 -30 -3 -17 -1
-33 4 -36 4 -3 8 -11 8 -17 0 -7 -4 -6 -10 3 -6 10 -10 11 -10 3 0 -7 -9 -13
-21 -13 -11 0 -17 -4 -14 -10 3 -6 -6 -11 -22 -11 l-28 -2 28 -4 c15 -2 27 -8
27 -13 0 -14 -68 -43 -81 -34 -9 5 -10 2 -6 -9 4 -11 1 -17 -8 -17 -23 0 -18
-20 8 -30 l22 -9 -22 -7 c-17 -5 -19 -9 -10 -19 7 -7 17 -10 22 -7 6 2 5 -1
-2 -8 -9 -10 -8 -16 4 -28 14 -14 17 -14 28 1 13 19 35 23 35 7 0 -5 -4 -10
-10 -10 -5 0 -10 -4 -10 -10 0 -5 9 -10 19 -10 11 0 21 -6 24 -12 2 -9 22 -12
60 -11 35 1 57 -2 57 -9 0 -7 13 -8 38 -4 20 4 51 9 67 11 86 13 130 32 155
68 14 20 44 50 68 68 33 24 42 37 42 61 0 28 2 29 31 23 22 -5 29 -4 25 4 -4
6 -12 9 -17 6 -5 -4 -9 -2 -9 3 0 17 28 21 34 6 3 -9 10 -13 15 -10 13 9 122
-96 117 -111 -3 -7 -1 -13 5 -13 6 0 7 -4 4 -10 -3 -5 -2 -10 4 -10 5 0 12 6
14 13 3 6 6 0 6 -15 1 -16 6 -28 11 -28 6 0 28 -12 50 -26 l40 -26 -26 -47
c-15 -26 -46 -60 -70 -76 -24 -17 -44 -33 -44 -37 0 -6 -94 -72 -125 -88 -5
-3 -29 -17 -51 -32 -23 -15 -57 -33 -75 -41 -19 -8 -59 -26 -89 -39 -92 -42
-180 -76 -295 -114 -102 -33 -121 -36 -254 -39 -79 -2 -164 1 -190 5 -135 26
-175 36 -172 43 1 5 -8 17 -20 28 -23 20 -44 26 -34 9 3 -5 1 -10 -4 -10 -6 0
-11 5 -11 11 0 6 -7 9 -14 6 -9 -4 -13 -1 -10 6 2 7 -18 24 -48 39 -29 15 -62
34 -73 43 -11 9 -66 46 -122 83 -158 103 -203 145 -280 262 -39 58 -73 116
-76 130 -9 35 30 504 57 690 42 294 48 366 53 658 4 214 9 302 17 302 6 0 23
-8 36 -17z m2497 -332 c0 -22 -3 -38 -7 -36 -10 6 -19 56 -13 72 9 24 20 4 20
-36z m17 -87 c4 -15 2 -32 -3 -37 -8 -8 -11 -5 -11 10 0 12 -3 28 -6 37 -3 9
-2 16 4 16 5 0 13 -12 16 -26z m-2764 -277 c0 -2 -11 -26 -25 -53 -14 -27 -25
-58 -25 -69 0 -11 -7 -30 -15 -42 -8 -12 -12 -28 -9 -37 3 -9 1 -16 -5 -16 -6
0 -11 -7 -11 -15 0 -9 -7 -27 -16 -40 -9 -13 -13 -28 -10 -34 3 -5 -1 -11 -9
-14 -7 -3 -17 -22 -20 -41 -4 -19 -13 -40 -21 -47 -7 -6 -16 -27 -20 -46 -4
-19 -12 -37 -20 -40 -7 -2 -16 -25 -20 -49 -3 -24 -10 -44 -15 -44 -5 0 -9
-11 -9 -25 0 -15 -6 -25 -15 -25 -8 0 -18 -12 -21 -27 -4 -16 -16 -45 -26 -67
-18 -35 -39 -114 -57 -211 -4 -22 -13 -50 -19 -62 -8 -14 -10 -42 -6 -78 5
-38 3 -55 -5 -55 -6 0 -11 15 -11 34 0 18 -7 39 -15 46 -29 24 -38 -3 -36
-103 2 -89 0 -97 -22 -119 -14 -14 -28 -34 -31 -46 -11 -34 -24 -26 -39 23 -9
33 -11 70 -5 138 24 267 47 408 77 470 13 27 17 50 13 79 -3 30 -2 39 6 34 7
-4 12 -23 12 -42 0 -37 15 -46 25 -14 10 33 -4 80 -25 80 -11 0 -19 10 -23 28
-3 15 -8 34 -12 43 -4 11 15 35 62 80 130 123 283 277 283 285 0 5 23 29 51
54 29 25 57 50 63 57 10 11 26 17 26 10z m-545 -359 c-4 -13 -18 -52 -32 -87
-14 -35 -27 -78 -29 -95 -2 -17 -10 -36 -19 -42 -8 -6 -15 -24 -15 -40 -1 -32
-21 -120 -40 -172 -19 -51 -8 -385 14 -434 9 -21 18 -59 21 -84 3 -26 9 -52
15 -59 5 -6 7 -15 3 -18 -3 -4 -1 -7 5 -7 7 0 12 -7 12 -15 0 -8 -5 -15 -10
-15 -6 0 -13 7 -16 15 -13 33 -24 12 -24 -45 0 -52 -3 -61 -25 -76 -15 -10
-25 -26 -25 -40 0 -25 -14 -32 -25 -14 -11 19 -35 192 -41 300 -4 81 -9 107
-21 114 -15 8 -15 10 0 21 15 11 15 14 3 24 -19 16 -33 -8 -40 -70 -2 -24 -5
-44 -7 -44 -1 0 -3 -27 -5 -60 -4 -95 15 -212 40 -243 48 -60 61 -117 17 -73
-12 12 -28 21 -36 21 -16 0 -60 25 -83 47 -7 7 -20 13 -28 13 -8 0 -14 5 -14
10 0 6 -7 10 -15 10 -8 0 -23 4 -33 9 -53 27 -72 33 -86 28 -22 -9 -20 -37 2
-37 26 -1 120 -35 140 -52 31 -26 71 -48 87 -48 8 0 23 -4 33 -9 9 -5 25 -12
36 -15 17 -6 15 -10 -18 -42 -20 -19 -36 -39 -36 -44 0 -6 -7 -10 -15 -10 -9
0 -20 -10 -26 -23 -6 -12 -22 -31 -37 -41 -15 -10 -45 -41 -67 -68 -75 -92
-81 -98 -91 -98 -6 0 -23 -9 -36 -20 -24 -18 -38 -18 -38 2 0 5 11 14 25 20
24 11 24 12 8 29 -10 10 -31 36 -48 59 -16 22 -49 61 -72 86 -24 25 -43 52
-43 60 0 8 -4 14 -9 14 -5 0 -14 22 -21 50 -7 27 -25 66 -41 86 -16 20 -34 55
-40 78 -6 23 -17 64 -25 91 -8 28 -18 73 -23 100 -6 28 -22 79 -36 114 -25 61
-26 70 -20 178 l6 113 -24 0 c-17 0 -29 -10 -43 -35 -10 -19 -21 -35 -25 -35
-3 0 -14 -15 -24 -34 -15 -27 -16 -37 -7 -49 7 -8 15 -43 18 -78 4 -53 2 -67
-14 -84 -24 -26 -57 -45 -81 -45 -11 0 -21 -9 -24 -22 -5 -17 -9 -19 -20 -10
-19 16 -27 5 -27 -41 0 -40 26 -107 41 -107 5 0 9 -7 9 -15 0 -8 4 -15 9 -15
5 0 18 -21 30 -47 12 -27 32 -67 46 -91 14 -23 28 -60 31 -82 4 -22 11 -43 15
-46 5 -3 9 -19 9 -35 0 -33 25 -89 40 -89 6 0 10 -8 10 -18 0 -10 4 -22 9 -28
5 -5 12 -24 16 -43 7 -31 5 -33 -11 -26 -11 4 -41 12 -69 17 -27 5 -65 18 -83
29 -18 10 -39 19 -46 19 -17 0 -56 34 -56 48 0 6 9 17 20 25 22 15 32 88 12
95 -7 2 -12 8 -12 14 0 5 -7 16 -15 25 -14 13 -15 9 -10 -39 7 -65 -10 -93
-51 -85 -15 2 -40 1 -55 -3 -22 -7 -29 -5 -29 5 0 7 6 15 12 17 7 3 3 7 -8 10
-12 3 -38 -3 -59 -13 -21 -11 -57 -19 -80 -19 -30 0 -47 -6 -61 -21 -14 -16
-15 -23 -6 -26 14 -5 16 -23 3 -23 -5 0 -15 16 -21 36 -7 22 -15 32 -19 25 -5
-8 -20 1 -44 24 -25 24 -45 35 -67 35 -16 0 -30 -4 -30 -10 0 -5 -7 -10 -15
-10 -21 0 -19 13 5 30 24 17 25 33 5 50 -14 12 -17 11 -60 -27 -15 -14 -35
-17 -35 -5 1 10 26 42 34 42 14 0 33 25 28 38 -5 16 -23 15 -58 -3 -38 -20
-65 -20 -58 0 4 8 15 15 25 15 10 0 19 5 19 10 0 6 7 10 15 10 20 0 19 24 -2
41 -13 11 -17 11 -20 2 -3 -7 -10 -13 -16 -13 -6 0 -28 -8 -48 -17 -33 -15
-39 -23 -39 -50 0 -18 5 -33 11 -33 11 0 39 -24 39 -34 0 -14 59 -66 74 -66 9
0 16 -4 16 -10 0 -5 -16 -10 -35 -10 -19 0 -35 -4 -35 -10 0 -5 22 -10 49 -10
51 0 81 -17 81 -46 0 -8 9 -14 20 -14 11 0 20 -6 20 -13 0 -7 13 -23 30 -37
17 -14 30 -30 30 -37 0 -7 7 -13 16 -13 16 0 54 -36 54 -51 0 -4 9 -11 20 -14
11 -3 20 -12 20 -20 0 -7 19 -34 43 -59 75 -81 73 -76 27 -76 -22 0 -40 -4
-40 -10 0 -5 7 -10 16 -10 10 0 14 -5 10 -15 -3 -9 -1 -15 7 -14 23 3 37 -1
37 -11 0 -5 -11 -10 -25 -10 -14 0 -25 -4 -25 -10 0 -5 -11 -10 -25 -10 -16 0
-25 -6 -25 -15 0 -16 21 -20 34 -7 4 4 11 7 14 7 4 1 17 6 29 13 23 13 40 1
28 -18 -4 -6 5 -10 19 -10 36 0 31 -29 -6 -43 -10 -3 -18 -11 -18 -17 0 -16
37 -12 44 5 3 8 16 14 28 14 17 -1 18 -2 6 -6 -10 -2 -18 -13 -18 -24 0 -10
-6 -19 -12 -20 -10 0 -10 -2 0 -6 7 -3 22 3 33 13 17 15 22 16 44 4 30 -16 31
-24 6 -52 -14 -14 -28 -19 -49 -16 -22 3 -29 1 -25 -9 3 -9 -4 -13 -21 -13
-14 0 -26 -4 -26 -10 0 -5 -7 -10 -15 -10 -8 0 -15 -5 -15 -11 0 -32 -88 -60
-98 -31 -2 7 -10 12 -18 12 -8 0 -14 10 -14 25 0 19 5 25 21 25 11 0 17 5 14
10 -11 17 -43 11 -59 -11 -16 -23 -11 -49 9 -49 7 0 16 -7 19 -16 9 -23 -2
-54 -20 -54 -8 0 -14 -4 -14 -10 0 -5 -7 -10 -15 -10 -8 0 -15 5 -15 10 0 6 5
10 10 10 6 0 10 8 10 18 -1 15 -2 15 -15 -2 -9 -11 -12 -30 -9 -45 4 -20 3
-23 -5 -11 -9 12 -11 11 -11 -7 0 -12 -6 -26 -14 -30 -8 -4 -15 -17 -17 -28
-3 -13 -14 -21 -32 -23 -19 -2 -27 -9 -27 -22 0 -10 -9 -22 -20 -25 -11 -3
-20 -15 -20 -26 0 -10 -7 -19 -15 -19 -8 0 -15 -4 -15 -10 0 -5 4 -10 10 -10
19 0 -14 -51 -37 -56 -14 -4 -23 -14 -23 -25 0 -10 -3 -19 -8 -19 -4 0 -13
-14 -21 -31 -16 -36 -54 -38 -59 -2 -2 12 -12 25 -22 28 -10 3 -22 14 -25 25
-3 10 -17 21 -30 24 -13 3 -26 15 -30 26 -3 10 -15 22 -25 25 -10 3 -26 26
-36 50 -9 25 -21 45 -25 45 -5 0 -9 11 -9 25 0 14 -9 44 -20 65 -16 31 -26 40
-46 40 -35 0 -87 55 -80 85 3 12 14 25 25 28 14 3 20 18 25 63 4 33 7 76 6 97
0 34 2 37 26 37 15 0 35 -10 45 -22 24 -26 25 -11 2 22 -24 35 -40 50 -52 50
-6 0 -11 5 -11 10 0 6 -7 10 -15 10 -18 0 -37 -68 -38 -137 -1 -36 -5 -53 -14
-53 -7 0 -13 4 -13 9 0 5 -14 24 -31 42 -38 40 -54 119 -25 119 9 0 16 5 16
10 0 6 7 10 15 10 8 0 15 7 15 15 0 8 -7 15 -15 15 -8 0 -15 -4 -15 -10 0 -5
-11 -10 -25 -10 -14 0 -25 5 -25 10 0 16 -14 11 -27 -10 -10 -16 -9 -27 6 -62
10 -24 21 -68 25 -98 4 -30 12 -60 18 -67 21 -26 -2 -25 -26 0 -25 27 -86 39
-86 17 0 -12 -26 -14 -33 -2 -2 4 -3 2 -1 -4 1 -6 -24 -10 -67 -10 -38 0 -69
2 -69 3 0 1 7 28 16 60 15 58 57 216 74 283 5 19 17 87 25 150 9 63 22 124 29
135 8 11 17 40 21 63 4 24 18 55 31 69 13 14 24 29 24 33 0 6 22 32 87 102 7
7 18 18 25 25 7 7 18 18 25 25 19 20 42 38 49 38 4 0 14 8 23 18 9 11 30 22
46 26 17 4 61 23 99 42 39 19 75 34 82 34 6 0 25 7 40 15 16 8 41 15 56 15 15
0 30 5 33 10 3 6 19 10 36 10 16 0 29 5 29 10 0 6 6 10 13 10 7 0 29 11 49 25
21 14 51 28 68 31 17 4 33 11 36 15 3 5 20 9 39 9 19 0 37 5 40 10 3 6 17 10
30 10 13 0 27 5 30 10 3 6 13 10 22 10 14 0 66 20 105 41 10 5 24 9 32 9 7 0
29 13 47 30 19 16 40 30 47 30 6 0 12 4 12 8 0 4 23 21 50 37 28 16 50 32 50
36 0 4 9 11 21 14 11 4 51 38 89 76 38 38 74 69 80 69 6 0 18 7 26 15 9 8 24
15 35 15 10 0 19 4 19 8 0 21 156 82 226 89 35 3 69 12 75 19 6 8 17 14 25 14
7 0 26 12 42 28 42 39 89 62 127 62 19 0 37 5 40 10 3 6 14 10 24 10 10 0 26
11 35 25 9 14 25 25 35 25 10 0 26 15 36 34 11 19 29 37 41 40 13 4 38 20 56
37 86 81 146 111 133 67z m2046 -241 c-13 -13 -26 -3 -16 12 3 6 11 8 17 5 6
-4 6 -10 -1 -17z m2493 -126 c3 -5 0 -11 -8 -14 -15 -6 -26 1 -26 15 0 11 27
10 34 -1z m-2574 -91 c0 -5 -4 -10 -10 -10 -5 0 -10 5 -10 10 0 6 5 10 10 10
6 0 10 -4 10 -10z m404 -75 c-4 -8 -9 -15 -13 -15 -4 0 -8 7 -8 15 0 8 6 15
13 15 8 0 11 -6 8 -15z m-1752 -147 c-3 -13 -12 -27 -21 -32 -13 -8 -12 -10 4
-17 18 -7 18 -8 2 -8 -10 -1 -16 -4 -14 -8 3 -5 -1 -14 -9 -21 -12 -11 -14 -9
-15 10 -2 42 3 63 19 80 24 24 41 22 34 -4z m-168 -188 c10 -68 19 -151 23
-205 7 -89 3 -316 -6 -334 -4 -9 -14 -43 -21 -76 -7 -33 -20 -66 -28 -72 -11
-9 -12 -13 -3 -13 9 0 11 -11 7 -39 -3 -27 1 -50 14 -76 17 -34 17 -37 2 -33
-13 4 -17 -2 -17 -21 0 -14 4 -32 9 -40 5 -8 4 -16 -4 -21 -9 -6 -8 -15 5 -40
9 -17 13 -39 10 -48 -19 -46 -36 -224 -24 -243 4 -7 3 -21 -2 -30 -5 -9 -11
-122 -13 -251 -5 -232 -8 -267 -28 -343 -5 -22 -12 -79 -14 -127 -2 -47 -8
-97 -13 -110 -5 -13 -7 -40 -5 -61 2 -21 -1 -50 -7 -64 -8 -21 -7 -29 5 -35 8
-5 12 -16 9 -28 -3 -11 0 -20 6 -20 18 0 12 -29 -9 -42 -25 -16 -29 -78 -5
-78 9 0 15 -9 15 -24 0 -13 -7 -26 -15 -30 -8 -3 -15 -12 -15 -21 0 -9 7 -18
15 -21 8 -4 15 -10 15 -15 0 -6 -8 -5 -19 1 -13 7 -22 7 -26 0 -10 -15 -51
-12 -66 6 -9 12 -13 79 -14 280 0 146 3 268 8 271 4 3 5 12 1 22 -11 27 -13
231 -2 306 5 39 12 99 14 134 2 35 7 67 9 71 3 5 0 21 -5 36 -6 15 -7 30 -2
33 12 8 8 272 -5 296 -6 11 -11 69 -12 129 -1 61 -4 120 -7 132 -7 29 12 65
31 58 9 -4 15 0 15 9 0 8 -11 18 -24 21 -32 8 -64 53 -72 104 -5 33 -3 43 15
58 11 10 21 26 21 35 0 9 8 31 17 49 19 39 31 88 43 180 5 36 29 125 54 198
25 73 46 140 46 149 0 9 10 31 22 49 l22 32 13 -36 c8 -21 15 -48 17 -62z
m186 25 c6 3 10 0 10 -8 0 -16 -27 -30 -41 -21 -5 3 -9 14 -9 25 0 10 -4 19
-10 19 -5 0 -10 7 -10 16 0 13 6 10 25 -10 14 -15 30 -24 35 -21z m4930 -31
c0 -31 -2 -35 -21 -29 -15 5 -19 4 -15 -4 4 -6 0 -11 -11 -12 -26 -2 -67 2
-75 7 -13 8 16 44 34 44 10 0 18 4 18 9 0 9 21 16 58 20 7 1 12 -12 12 -35z
m-4862 -18 c2 -10 -5 -24 -17 -32 -22 -16 -28 -34 -11 -34 6 0 10 7 10 15 0 8
5 15 10 15 6 0 10 -7 10 -15 0 -9 9 -15 25 -15 14 0 25 -4 25 -8 0 -14 -29
-48 -30 -34 0 6 -5 12 -11 12 -24 0 -1 -23 35 -35 49 -17 55 -24 33 -40 -10
-7 -18 -16 -18 -19 3 -21 -3 -26 -34 -32 -19 -3 -39 -12 -46 -20 -12 -14 -11
-14 34 -18 6 -1 11 5 10 12 -2 6 2 12 7 12 6 0 10 -2 10 -4 0 -2 3 -11 6 -20
4 -12 0 -16 -15 -16 -20 0 -25 -11 -24 -47 1 -19 -15 -15 -27 6 -7 14 -6 21 3
25 6 3 1 3 -13 0 -18 -3 -35 4 -59 26 -32 29 -33 32 -20 56 7 14 15 21 17 15
5 -16 22 -13 22 4 0 9 -7 18 -15 21 -11 5 -15 23 -15 73 0 37 -5 72 -11 78 -6
6 -9 17 -7 23 3 9 9 8 21 -4 16 -17 43 -13 32 4 -6 9 21 19 45 16 8 -1 16 -9
18 -20z m3089 -13 c4 -12 -35 -38 -44 -30 -2 3 2 15 9 26 13 22 29 23 35 4z
m1313 -24 c-6 -11 -18 -23 -26 -26 -8 -3 -14 -9 -14 -14 0 -16 -34 -49 -50
-49 -8 0 -28 -11 -44 -25 -33 -28 -69 -37 -42 -10 8 8 17 15 20 15 12 0 65 53
61 60 -3 4 6 11 20 14 18 5 25 13 25 31 0 21 5 25 30 25 28 0 30 -2 20 -21z
m-6220 -24 c0 -8 -4 -15 -9 -15 -5 0 -11 7 -15 15 -3 9 0 15 9 15 8 0 15 -7
15 -15z m6500 9 c0 -18 -66 -66 -96 -71 -19 -3 -40 -14 -47 -23 -7 -10 -29
-25 -50 -33 -20 -9 -37 -20 -37 -26 0 -10 -61 -34 -68 -26 -6 6 -9 4 55 49 29
20 57 36 63 36 5 0 10 4 10 8 0 5 17 14 38 20 21 6 53 25 72 42 31 28 60 39
60 24z m-610 -24 c0 -5 -2 -10 -4 -10 -3 0 -8 5 -11 10 -3 6 -1 10 4 10 6 0
11 -4 11 -10z m1130 0 c0 -5 -7 -10 -16 -10 -8 0 -12 5 -9 10 3 6 10 10 16 10
5 0 9 -4 9 -10z m-275 -51 c11 -17 -1 -21 -15 -4 -8 9 -8 15 -2 15 6 0 14 -5
17 -11z m-49 -35 c-3 -9 -6 -25 -7 -37 -1 -18 -2 -16 -9 7 -10 31 -6 46 12 46
5 0 7 -7 4 -16z m-1956 -12 c0 -4 -6 -16 -14 -27 -7 -11 -18 -36 -24 -55 -5
-19 -24 -73 -42 -120 -18 -47 -35 -107 -39 -135 -4 -27 -12 -59 -18 -70 -6
-11 -14 -45 -18 -75 -4 -30 -13 -65 -21 -77 -17 -28 -18 -80 -1 -86 9 -4 8 -8
-3 -17 -11 -9 -12 -13 -2 -17 18 -7 15 -30 -8 -46 -37 -26 -61 -111 -66 -237
-4 -104 -8 -121 -37 -180 -28 -57 -32 -76 -33 -150 -1 -47 -7 -105 -13 -129
-7 -24 -12 -89 -12 -144 1 -91 -1 -101 -21 -119 -27 -23 -42 -107 -52 -280 -4
-88 -4 -88 20 -88 27 0 27 -4 24 173 -1 95 1 110 17 123 28 21 36 17 30 -14
-3 -16 -1 -46 4 -68 5 -21 12 -73 15 -115 4 -65 2 -77 -11 -83 -9 -3 -21 -4
-26 0 -5 3 -9 -4 -9 -16 0 -12 -13 -32 -29 -46 -16 -13 -33 -38 -36 -55 -7
-30 -8 -31 -49 -24 -22 4 -51 8 -62 8 -19 2 -20 5 -12 26 5 14 11 77 13 140 6
130 19 231 42 306 18 60 35 207 34 293 0 34 4 62 9 62 5 0 9 18 8 40 -1 23 4
46 10 52 7 7 12 28 12 48 0 20 5 41 12 48 9 9 9 15 1 23 -8 8 -6 21 8 46 14
26 20 54 20 102 -1 95 2 118 17 133 6 6 12 25 12 42 0 16 4 43 9 60 9 26 21
123 36 279 2 27 -1 37 -11 37 -9 0 -14 -11 -14 -34 0 -35 -12 -46 -43 -38 -14
4 -16 11 -11 38 3 19 2 34 -3 34 -11 0 -11 89 0 107 4 6 3 14 -2 17 -12 8 -12
62 1 104 11 37 58 71 58 42 0 -5 -7 -10 -17 -10 -14 0 -14 -2 -2 -17 24 -31
39 -62 39 -83 0 -15 7 -20 25 -20 16 0 25 6 25 15 0 8 7 15 15 15 8 0 15 -7
15 -15 0 -18 16 -19 36 -2 45 36 74 65 74 74 0 6 9 22 21 37 11 14 30 52 41
83 11 32 24 66 29 75 10 18 29 25 29 10z m-4600 -20 c0 -10 4 -22 9 -27 5 -6
11 -26 12 -45 2 -19 7 -41 13 -48 7 -10 3 -19 -14 -33 -45 -34 -70 -21 -70 37
0 15 6 24 15 24 19 0 20 36 1 43 -13 5 -13 10 0 36 17 34 34 41 34 13z m6910
-7 c0 -8 -7 -15 -15 -15 -8 0 -15 7 -15 15 0 8 7 15 15 15 8 0 15 -7 15 -15z
m-2920 -2 c0 -11 -123 -123 -136 -123 -6 0 -26 -17 -45 -37 -33 -37 -80 -75
-118 -97 -69 -40 -68 -40 -41 -15 14 13 59 53 99 89 41 35 90 80 110 99 67 64
131 105 131 84z m2515 -24 c7 -23 -7 -45 -23 -35 -11 6 -4 56 8 56 5 0 12 -9
15 -21z m-2058 -6 c4 -9 1 -19 -5 -21 -15 -5 -16 -32 -2 -32 22 0 8 -29 -27
-55 -21 -15 -52 -43 -70 -61 l-31 -34 3 32 c3 38 28 91 62 131 12 16 23 35 23
43 0 20 39 18 47 -3z m-3514 -15 c4 -12 0 -54 -8 -93 -8 -38 -14 -81 -14 -95
0 -91 -16 -216 -42 -332 -6 -26 -12 -107 -14 -180 -2 -73 -8 -221 -13 -328 -5
-107 -6 -242 -2 -300 14 -180 22 -657 11 -640 -5 8 -13 37 -16 65 -4 27 -15
73 -25 100 -9 28 -21 86 -25 130 -4 44 -11 87 -15 96 -5 8 -11 35 -14 59 -3
24 -10 67 -16 96 -6 29 -10 59 -9 66 2 7 -5 30 -14 52 -9 21 -17 41 -17 43 0
3 -6 19 -14 36 -33 79 -39 96 -56 162 -10 39 -27 91 -39 117 -18 38 -22 71
-25 180 -2 73 -7 148 -11 166 -7 31 -6 33 17 27 15 -4 29 -1 35 7 17 20 33
112 33 184 0 70 -1 68 85 154 21 22 42 40 46 40 4 0 14 17 23 38 28 62 43 84
80 117 20 17 36 37 36 43 0 21 17 13 23 -10z m845 3 c3 -8 -1 -12 -9 -9 -7 2
-15 10 -17 17 -3 8 1 12 9 9 7 -2 15 -10 17 -17z m5072 15 c0 -11 -19 -15 -25
-6 -3 5 1 10 9 10 9 0 16 -2 16 -4z m-5020 -40 c-5 -5 -17 -5 -27 -2 -17 7
-17 8 1 22 16 11 21 11 27 2 5 -7 4 -17 -1 -22z m4130 5 c25 -7 25 -7 -6 -14
-21 -4 -33 -13 -37 -28 -3 -11 -12 -19 -19 -17 -16 5 -39 49 -32 60 6 10 59 9
94 -1z m495 -10 c3 -5 1 -12 -5 -16 -5 -3 -10 1 -10 9 0 18 6 21 15 7z m-4865
-38 c20 -21 56 -54 78 -73 39 -33 51 -54 35 -62 -5 -1 -16 -16 -25 -33 -22
-39 -43 -46 -34 -11 7 27 -5 35 -21 14 -15 -22 -15 -75 1 -110 8 -18 22 -58
31 -88 9 -30 32 -87 51 -125 22 -43 33 -77 29 -88 -7 -18 9 -24 20 -7 3 5 12
7 20 3 8 -3 15 0 15 5 0 6 -7 12 -16 14 -12 2 -16 16 -18 56 -1 43 2 52 16 52
9 0 20 -9 23 -20 3 -11 13 -20 20 -20 18 0 27 -35 23 -86 -2 -26 2 -43 12 -51
10 -9 11 -12 3 -13 -7 0 -13 -7 -13 -15 0 -14 11 -19 38 -16 14 2 16 -25 2
-34 -7 -4 -7 -12 0 -25 15 -29 12 -55 -11 -84 -11 -14 -16 -26 -10 -26 6 0 11
5 11 10 0 6 9 10 20 10 11 0 20 7 20 15 0 8 7 15 15 15 8 0 15 -5 15 -11 0 -6
20 -30 45 -55 25 -24 45 -46 45 -50 0 -4 6 -15 14 -23 21 -23 33 -121 16 -121
-15 0 -50 -29 -50 -42 0 -17 38 -7 43 12 4 16 14 20 46 20 32 0 41 4 42 18 1
11 4 8 8 -8 4 -14 4 -26 -1 -28 -16 -7 -7 -32 21 -59 15 -16 26 -34 24 -41 -3
-7 -2 -27 1 -45 6 -30 8 -32 48 -31 44 2 88 -17 88 -37 0 -7 -11 -9 -32 -4
-56 12 -187 15 -193 5 -3 -6 2 -10 13 -10 10 0 38 -9 61 -21 33 -15 47 -30 59
-60 12 -32 18 -37 29 -27 9 7 12 21 8 35 -4 16 -1 23 10 23 8 0 15 -3 16 -7 0
-5 3 -20 5 -35 5 -27 -8 -42 -36 -43 -8 0 -19 -10 -25 -22 -7 -17 -16 -22 -38
-19 -32 3 -47 22 -50 63 -4 45 -25 38 -32 -10 -6 -36 -11 -46 -30 -49 -18 -4
-21 -1 -17 14 3 13 -1 18 -17 18 -14 0 -25 9 -31 25 -10 27 -31 40 -52 33 -8
-3 -3 -14 15 -32 15 -15 25 -32 21 -37 -3 -6 3 -13 14 -16 13 -3 19 -10 15
-20 -5 -13 -7 -13 -15 1 -7 12 -13 13 -34 4 -14 -7 -23 -18 -22 -27 3 -15 -51
-53 -94 -68 -10 -3 -18 -9 -18 -14 0 -5 -4 -9 -10 -9 -24 0 -7 28 23 37 32 9
32 9 10 21 -19 11 -23 10 -23 -3 0 -19 -14 -19 -34 1 -9 8 -16 11 -16 5 0 -6
-5 -11 -11 -11 -6 0 -9 7 -6 14 4 10 1 13 -7 10 -17 -6 -26 34 -15 64 6 14 3
26 -6 36 -8 8 -15 31 -15 50 0 25 -4 36 -15 36 -18 0 -20 31 -3 48 9 9 9 12 0
12 -6 0 -14 16 -18 35 -3 19 -10 35 -15 35 -17 0 -27 44 -16 68 8 16 8 26 1
30 -18 12 -34 72 -40 146 -3 39 -9 89 -14 111 -5 22 -18 103 -30 180 -12 77
-31 190 -42 250 -18 98 -36 303 -38 423 0 54 19 56 70 5z m143 -10 c-7 -45 -8
-47 -22 -38 -15 8 -14 48 1 63 21 21 27 13 21 -25z m4103 10 c3 -10 10 -26 16
-37 8 -15 5 -23 -16 -42 -14 -13 -34 -24 -46 -24 -11 0 -20 -6 -20 -14 0 -8
-3 -16 -7 -18 -9 -4 -63 -85 -63 -94 0 -4 -10 -26 -22 -50 -16 -33 -31 -48
-64 -61 -39 -16 -44 -22 -50 -58 -3 -22 -5 -45 -4 -50 11 -53 -28 -71 -117
-55 -35 7 -63 13 -63 15 0 7 32 65 36 65 3 0 17 -11 32 -25 15 -14 37 -25 49
-25 20 0 22 2 11 19 -9 15 -8 22 5 35 13 14 14 21 5 42 -10 21 -8 29 12 57 13
17 32 38 42 45 10 7 16 18 13 23 -4 5 3 9 14 9 11 0 25 -8 30 -17 6 -11 11
-13 11 -5 0 7 -11 25 -24 39 -26 28 -25 53 0 32 8 -6 18 -9 21 -5 4 4 1 11 -7
16 -13 8 -12 10 2 10 9 0 20 -5 23 -10 4 -6 11 -7 17 -4 6 4 5 9 -3 15 -7 4
-10 11 -6 15 3 4 14 1 23 -7 14 -12 15 -9 12 22 -2 29 0 34 20 37 12 2 22 8
22 14 0 6 14 24 30 40 17 15 30 37 30 48 0 25 29 27 36 3z m-1819 -41 c-10
-10 -17 -23 -17 -28 0 -5 -9 -16 -20 -24 -19 -13 -31 -41 -44 -101 -3 -14 -17
-31 -31 -37 -22 -10 -24 -15 -15 -32 7 -14 7 -20 0 -20 -5 0 -10 -13 -10 -29
0 -20 -10 -37 -37 -60 -36 -30 -46 -35 -70 -32 -7 1 -10 -5 -7 -13 4 -10 -2
-17 -20 -22 -33 -8 -34 -22 -1 -19 31 4 32 -6 4 -24 -18 -10 -19 -15 -8 -22 9
-6 -3 -9 -36 -9 -27 0 -45 -4 -38 -8 26 -17 -13 -122 -59 -162 -10 -8 -20 -33
-23 -55 -3 -26 -13 -47 -29 -60 -13 -11 -30 -38 -37 -60 -7 -22 -19 -45 -27
-52 -7 -6 -16 -31 -18 -55 -3 -23 -9 -47 -14 -52 -5 -5 -6 -14 -4 -20 3 -7 -2
-26 -11 -42 -8 -16 -15 -41 -15 -56 0 -15 -4 -38 -10 -52 -8 -21 -16 -26 -45
-26 -31 0 -35 -3 -34 -22 1 -13 1 -40 1 -60 -2 -31 -6 -38 -22 -38 -17 0 -20
-5 -16 -32 2 -18 0 -42 -4 -52 -6 -19 -7 -19 -29 3 -23 23 -42 22 -24 -1 17
-21 26 -58 14 -58 -6 0 -11 7 -11 15 0 9 -9 15 -21 15 -19 0 -20 -4 -14 -40 5
-27 3 -40 -5 -40 -7 0 -9 8 -5 20 5 16 2 20 -18 20 -13 0 -34 -9 -47 -20 -13
-11 -29 -20 -37 -20 -7 0 -13 -11 -13 -25 0 -14 -4 -25 -10 -25 -5 0 -10 -11
-10 -24 0 -20 -4 -23 -30 -21 -16 1 -35 7 -42 12 -17 14 -48 1 -75 -31 -13
-14 -31 -26 -40 -26 -34 0 -63 12 -63 26 0 8 -4 14 -10 14 -5 0 -10 4 -10 9 0
14 38 20 44 7 2 -6 5 -2 5 10 1 32 101 71 101 39 0 -22 27 -18 40 5 16 31 44
26 36 -6 -5 -19 -3 -25 6 -22 7 3 14 18 16 35 3 25 0 30 -20 29 -14 -1 -23 5
-23 14 0 25 -40 23 -100 -4 -30 -14 -58 -26 -60 -26 -2 0 -23 -18 -47 -40 -24
-22 -51 -42 -60 -46 -10 -3 -18 -13 -18 -22 0 -10 -9 -25 -19 -34 -18 -15 -19
-15 -23 0 -7 27 4 142 13 142 4 0 8 20 7 45 -1 49 -23 80 -39 54 -5 -8 -9 -19
-9 -25 0 -7 -9 -14 -19 -17 -30 -7 -39 41 -11 60 43 30 -9 45 -71 19 -30 -12
-36 -12 -51 3 -15 15 -15 18 3 40 17 21 53 24 47 4 -2 -4 2 -8 7 -8 6 0 10 17
9 38 0 20 3 37 8 37 4 0 8 -7 8 -15 0 -8 4 -15 9 -15 5 0 16 -3 25 -6 12 -4
16 0 16 15 0 12 -5 21 -11 21 -6 0 -9 6 -6 14 3 8 -1 17 -9 20 -21 8 -17 46 9
66 26 22 18 36 -12 21 -54 -28 -61 -31 -71 -31 -5 0 -10 7 -10 15 0 8 -7 15
-15 15 -12 0 -14 -4 -5 -19 7 -13 7 -22 0 -26 -5 -3 -10 -16 -10 -28 0 -16 -3
-18 -12 -9 -7 7 -22 12 -35 12 -27 0 -30 15 -5 29 15 9 16 10 0 11 -9 0 -20 9
-23 20 -3 11 -13 20 -21 20 -8 0 -18 8 -21 18 -4 9 -11 20 -17 24 -8 5 -8 12
0 24 12 21 101 26 143 8 20 -8 34 -7 59 3 43 18 71 8 78 -26 l6 -28 41 23 c56
32 85 44 104 44 9 0 30 9 48 20 22 13 48 20 76 19 51 -3 146 16 166 32 9 9 17
8 27 0 10 -8 16 -9 21 -1 3 5 14 10 24 10 10 0 25 8 35 18 9 11 34 24 56 31
22 6 44 21 50 31 6 11 20 20 30 20 12 0 20 7 20 18 0 9 15 27 33 39 52 37 97
78 97 90 0 6 9 15 20 18 11 3 20 13 20 21 0 22 30 64 46 64 8 0 14 10 14 23 0
12 7 36 16 52 23 44 43 115 37 131 -3 8 0 14 7 14 14 0 40 25 40 39 0 6 -5 11
-10 11 -22 0 15 46 110 140 53 52 109 102 125 110 17 8 40 26 52 39 12 13 34
30 50 37 38 17 38 17 20 -4z m2313 8 c0 -5 -4 -10 -10 -10 -5 0 -10 -9 -10
-20 0 -11 -4 -20 -10 -20 -13 0 -13 16 0 41 11 20 30 26 30 9z m-360 -10 c-20
-13 -63 -13 -55 0 3 6 21 10 38 10 24 0 28 -3 17 -10z m-4190 -31 c0 -5 -7 -9
-15 -9 -15 0 -20 12 -9 23 8 8 24 -1 24 -14z m-1727 -21 c15 -7 27 -19 27 -25
0 -7 11 -13 25 -13 18 0 25 -5 25 -19 0 -11 5 -23 10 -26 6 -3 10 -14 10 -24
0 -10 11 -30 25 -45 14 -15 25 -33 25 -40 0 -38 72 -123 98 -118 8 2 16 -6 19
-17 3 -12 12 -21 19 -21 8 0 14 -7 14 -15 0 -8 -4 -15 -10 -15 -13 0 -78 -65
-108 -108 -13 -17 -32 -32 -43 -32 -14 0 -19 -7 -19 -28 0 -26 -3 -28 -29 -24
-16 2 -39 13 -50 23 -11 11 -33 24 -48 30 l-28 10 20 -20 c33 -33 45 -50 45
-62 0 -7 9 -9 26 -5 19 5 25 3 22 -6 -7 -20 -54 -21 -83 -2 -26 17 -28 17 -45
-7 -20 -26 -21 -26 -38 14 -6 15 -18 27 -26 27 -18 0 -29 27 -14 36 5 4 14 0
19 -7 5 -8 9 -9 9 -3 0 5 -9 20 -19 31 -11 12 -17 24 -14 27 4 3 2 6 -4 6 -21
0 -73 59 -80 90 -6 30 -5 32 18 26 l24 -7 -25 20 c-30 25 -40 26 -40 6 0 -18
-12 -19 -27 -4 -13 13 -33 4 -33 -16 0 -10 -5 -11 -25 -2 -27 13 -34 37 -10
37 8 0 15 5 15 11 0 11 13 10 130 -7 25 -3 48 -11 51 -16 3 -5 31 -12 62 -15
32 -3 57 -10 57 -14 0 -5 15 -9 34 -9 56 0 58 48 6 165 -12 28 -32 82 -45 120
-13 39 -27 78 -30 88 -9 21 18 23 58 5z m1917 2 c0 -5 -5 -10 -11 -10 -5 0 -7
5 -4 10 3 6 8 10 11 10 2 0 4 -4 4 -10z m4660 -24 c0 -8 -7 -16 -15 -20 -12
-4 -13 -2 -2 14 14 24 17 25 17 6z m-792 -33 c-3 -30 -19 -54 -30 -46 -12 6
-10 43 2 43 6 0 10 7 10 15 0 8 5 15 10 15 6 0 9 -12 8 -27z m372 15 c0 -19
-18 -44 -25 -36 -4 3 0 15 7 27 15 24 18 26 18 9z m-4450 -22 c7 -14 23 -27
36 -30 26 -7 33 -36 9 -36 -8 0 -15 -4 -15 -9 0 -20 -46 -60 -59 -52 -10 6 -5
17 18 43 17 19 28 38 24 42 -14 14 -40 5 -53 -19 -12 -22 -40 -35 -40 -18 0
19 45 103 55 103 6 0 17 -11 25 -24z m90 20 c0 -3 -4 -8 -10 -11 -5 -3 -10 -1
-10 4 0 6 5 11 10 11 6 0 10 -2 10 -4z m36 -43 c-11 -11 -19 6 -11 24 8 17 8
17 12 0 3 -10 2 -21 -1 -24z m3459 5 c28 -24 33 -58 10 -58 -9 0 -20 11 -24
24 -5 13 -17 26 -25 29 -9 4 -16 11 -16 17 0 17 29 11 55 -12z m1235 16 c0 -8
-32 -33 -42 -34 -5 0 -8 5 -8 10 0 6 7 10 15 10 8 0 15 5 15 10 0 6 5 10 10
10 6 0 10 -3 10 -6z m-4640 -38 c0 -8 -7 -16 -15 -20 -15 -5 -21 14 -8 27 11
12 23 8 23 -7z m1641 -27 c-13 -11 -26 -17 -29 -14 -7 6 29 34 43 34 6 0 -1
-9 -14 -20z m-1717 -16 c5 -11 1 -22 -10 -30 -36 -26 -54 -11 -38 31 8 21 40
20 48 -1z m4641 9 c-35 -31 -103 -82 -109 -82 -16 0 -3 32 17 39 12 5 31 18
42 29 11 12 29 21 40 21 11 1 15 -3 10 -7z m-4475 -26 c0 -8 -7 -16 -15 -20
-15 -5 -21 14 -8 27 11 12 23 8 23 -7z m103 -3 c-7 -2 -21 -2 -30 0 -10 3 -4
5 12 5 17 0 24 -2 18 -5z m4814 -10 c4 -9 18 -27 31 -38 19 -17 24 -30 24 -65
-1 -25 4 -48 10 -51 6 -4 8 -15 3 -25 -4 -11 -9 -26 -10 -34 -2 -26 -39 -110
-47 -110 -5 0 -8 -15 -8 -34 0 -19 -9 -44 -19 -57 l-20 -24 -14 35 c-8 19 -25
75 -37 124 -21 80 -21 90 -7 101 25 18 33 82 12 105 -22 25 -15 44 24 61 17 8
31 17 31 21 0 15 21 8 27 -9z m-4891 -20 c-10 -10 -19 5 -10 18 6 11 8 11 12
0 2 -7 1 -15 -2 -18z m-2736 9 c0 -4 -15 -14 -32 -22 -18 -7 -36 -15 -40 -18
-5 -2 -8 3 -8 12 0 9 7 16 15 16 8 0 15 5 15 10 0 6 11 10 25 10 14 0 25 -4
25 -8z m2626 -17 c16 -14 41 -29 57 -32 15 -3 27 -9 27 -14 0 -4 10 -11 23
-15 12 -4 24 -9 27 -13 9 -12 101 -51 118 -51 10 0 26 -6 37 -14 19 -13 46
-20 125 -33 19 -3 40 -9 45 -14 24 -18 196 -32 355 -27 160 5 163 2 22 -22
-92 -15 -329 -15 -348 1 -13 10 -20 10 -37 0 -17 -11 -22 -11 -32 3 -16 21
-25 20 -26 -1 0 -14 -2 -13 -9 4 -10 23 -43 46 -54 36 -3 -3 -6 -1 -6 5 0 7
-9 12 -20 12 -14 0 -20 -6 -18 -16 2 -10 -3 -19 -9 -21 -8 -3 -13 4 -13 16 0
25 -36 43 -90 45 -28 1 -36 5 -38 24 -3 16 -10 22 -28 22 -13 0 -24 4 -24 9 0
5 -13 14 -30 20 -16 5 -30 16 -30 23 0 7 -7 2 -16 -10 -21 -30 -38 -28 -30 4
6 22 4 25 -13 19 -14 -4 -23 0 -31 15 -27 50 18 67 66 25z m-2266 -7 c0 -7 -4
-19 -9 -26 -7 -11 -10 -10 -15 3 -10 26 -7 35 9 35 8 0 15 -6 15 -12z m5690
-7 c12 -23 12 -87 0 -116 -7 -18 -10 -16 -24 17 -21 48 -22 118 -1 118 8 0 19
-9 25 -19z m-4760 -1 c0 -5 -5 -10 -11 -10 -6 0 -8 -9 -4 -20 4 -13 1 -22 -9
-26 -9 -3 -16 -17 -16 -30 0 -17 -6 -24 -20 -24 -13 0 -22 -9 -26 -25 -3 -14
-10 -25 -15 -25 -5 0 -7 11 -4 25 3 14 7 36 10 50 3 14 12 25 20 25 8 0 15 4
15 9 0 13 40 61 51 61 5 0 9 -4 9 -10z m1163 -15 c-6 -17 -23 -20 -23 -5 0 6
5 10 11 10 5 0 7 5 3 12 -4 7 -3 8 4 4 6 -4 9 -13 5 -21z m327 14 c0 -6 9 -9
20 -6 23 6 32 -3 21 -22 -7 -10 -14 -10 -40 3 -33 17 -41 36 -16 36 8 0 15 -5
15 -11z m-2722 -21 c-6 -16 -55 -44 -63 -36 -4 3 0 15 7 27 14 23 63 30 56 9z
m376 -4 c11 -28 7 -34 -24 -34 -34 0 -37 6 -13 32 20 22 29 23 37 2z m2442
-30 c-5 -12 -10 -13 -27 -4 l-20 11 23 21 c20 17 23 18 26 3 2 -9 1 -23 -2
-31z m89 5 c-7 -39 -6 -40 14 -30 12 7 21 18 21 26 0 8 4 15 10 15 5 0 7 -6 4
-14 -3 -8 -1 -17 5 -21 10 -6 15 15 14 53 -1 7 4 11 11 9 6 -2 10 -20 9 -41
-3 -41 8 -46 30 -13 16 22 16 22 16 -10 1 -32 14 -43 26 -23 5 8 11 7 20 0 10
-8 19 -8 34 0 12 6 21 8 21 4 0 -3 7 -1 16 7 14 11 15 8 12 -27 -3 -39 -3 -39
-43 -36 -22 2 -51 7 -65 12 -14 4 -53 14 -87 20 -34 7 -71 21 -81 31 -12 11
-28 16 -41 12 -16 -4 -21 -1 -21 16 0 22 19 28 36 11 7 -7 15 -2 24 15 19 35
23 31 15 -16z m4083 32 c-5 -14 -97 -81 -111 -81 -11 1 22 34 74 73 25 18 43
22 37 8z m-4500 -18 c-5 -25 -28 -28 -28 -4 0 12 6 21 16 21 9 0 14 -7 12 -17z
m39 -35 c-3 -8 -6 -5 -6 6 -1 11 2 17 5 13 3 -3 4 -12 1 -19z m-2447 2 c0 -5
7 -10 15 -10 11 0 15 -11 15 -40 0 -36 -3 -40 -24 -40 -13 0 -26 -5 -28 -12
-3 -8 -6 -6 -10 4 -4 10 5 27 23 46 24 25 27 31 13 36 -9 3 -31 -1 -50 -10
-40 -19 -51 -14 -32 15 13 22 78 31 78 11z m7380 0 c0 -5 -4 -10 -10 -10 -5 0
-10 5 -10 10 0 6 5 10 10 10 6 0 10 -4 10 -10z m-5090 -10 c0 -5 -5 -10 -11
-10 -5 0 -7 5 -4 10 3 6 8 10 11 10 2 0 4 -4 4 -10z m5000 -20 c0 -5 -7 -10
-15 -10 -8 0 -15 5 -15 10 0 6 7 10 15 10 8 0 15 -4 15 -10z m-4768 -42 c-8
-8 -9 -4 -5 13 4 13 8 18 11 10 2 -7 -1 -18 -6 -23z m658 -13 c-22 -27 -31
-15 -13 18 13 25 18 28 21 14 2 -10 -2 -24 -8 -32z m1590 30 c0 -9 -9 -15 -23
-15 -13 0 -28 -5 -35 -12 -8 -8 -12 -8 -12 -1 0 12 39 42 58 42 6 1 12 -6 12
-14z m2010 0 c0 -8 -9 -15 -20 -15 -13 0 -18 5 -14 15 4 8 12 15 20 15 8 0 14
-7 14 -15z m-3640 -15 c0 -11 -4 -20 -10 -20 -5 0 -10 9 -10 20 0 11 5 20 10
20 6 0 10 -9 10 -20z m-3034 0 c6 0 17 -13 24 -29 7 -17 22 -32 36 -35 13 -4
24 -13 24 -21 0 -9 11 -21 25 -27 13 -6 27 -19 30 -30 4 -10 15 -18 27 -18 11
0 22 -8 25 -20 3 -11 16 -23 29 -26 13 -3 24 -11 24 -17 0 -14 109 -117 125
-117 6 0 17 -11 23 -25 6 -14 18 -25 25 -25 8 0 19 -11 25 -25 12 -26 35 -36
26 -10 -4 9 0 15 9 15 8 0 17 5 19 11 2 6 41 13 91 16 48 3 87 9 87 13 0 4 14
10 30 14 17 3 30 11 30 17 0 8 -18 10 -65 5 -49 -5 -65 -4 -63 6 2 7 -4 12
-12 13 -21 1 -13 27 16 48 13 10 24 25 24 32 0 7 6 15 14 18 8 3 20 22 27 41
7 20 17 36 21 36 4 0 8 7 8 15 0 8 5 15 10 15 6 0 22 10 35 23 40 37 54 47 65
47 18 0 11 -18 -10 -25 -11 -3 -20 -14 -20 -24 0 -9 -6 -23 -12 -30 -11 -11
-10 -13 0 -7 20 12 50 -34 57 -84 7 -51 33 -117 50 -128 6 -4 19 -45 29 -92
10 -47 24 -97 32 -112 17 -33 29 -128 20 -163 -6 -22 -9 -25 -21 -15 -8 7 -15
19 -15 26 0 8 -7 14 -15 14 -8 0 -15 5 -15 10 0 6 -12 10 -26 10 -15 0 -23 4
-19 10 11 17 -42 90 -64 90 -6 0 -11 6 -11 14 0 8 -7 17 -16 20 -12 5 -15 2
-10 -10 3 -8 6 -24 6 -35 0 -11 11 -24 24 -30 13 -6 26 -19 28 -28 7 -25 -6
-56 -22 -56 -10 0 -14 -8 -12 -22 2 -13 1 -23 -2 -23 -14 0 -46 36 -46 52 0
10 -4 18 -9 18 -5 0 -16 6 -23 13 -7 6 -30 21 -50 32 -21 11 -38 22 -38 25 0
3 -15 12 -32 19 -18 8 -39 21 -46 28 -7 7 -19 13 -25 13 -7 0 -25 12 -42 26
-22 18 -36 23 -55 19 -14 -4 -26 -11 -28 -16 -6 -15 -42 -10 -42 6 0 8 7 15
16 15 18 0 44 23 44 39 0 18 -18 12 -44 -14 -40 -40 -61 -31 -30 13 17 24 13
27 -17 11 -34 -18 -41 -5 -15 26 14 17 26 33 26 38 0 12 -17 8 -30 -8 -7 -8
-18 -15 -25 -15 -8 0 -15 -6 -18 -12 -2 -7 -8 -10 -12 -5 -5 4 -3 13 3 19 7 7
12 20 12 30 0 10 5 18 10 18 6 0 10 7 10 15 0 17 -6 14 -57 -35 l-26 -24 6 34
c4 19 11 36 16 40 4 3 13 15 20 28 10 19 9 22 -9 22 -11 0 -20 -7 -20 -15 0
-8 -7 -15 -15 -15 -8 0 -15 -4 -15 -9 0 -5 -7 -11 -15 -15 -24 -9 -18 26 10
56 25 27 32 48 16 48 -4 0 -26 -14 -47 -31 -38 -31 -39 -31 -42 -9 -3 15 5 31
22 45 14 12 26 27 26 34 0 21 -33 11 -62 -19 -29 -31 -43 -36 -52 -21 -10 15
4 38 30 50 32 14 40 36 21 56 -19 19 -47 20 -47 2 0 -18 -34 -57 -49 -57 -18
0 -3 39 25 67 23 23 24 25 7 48 -21 29 -47 33 -39 7 6 -19 -26 -62 -45 -62
-18 0 0 51 24 71 19 16 20 20 7 30 -12 8 -10 10 10 5 14 -3 30 -6 36 -6z
m7169 -8 c24 -20 65 -103 65 -132 0 -11 4 -20 8 -20 7 0 32 -64 32 -82 0 -3
-11 -18 -25 -34 -17 -20 -25 -41 -25 -66 0 -21 -4 -38 -10 -38 -14 0 -12 -27
3 -33 7 -4 3 -8 -10 -12 -20 -6 -23 -14 -23 -56 0 -46 -2 -49 -25 -49 -29 0
-30 -21 -1 -33 18 -7 18 -8 -2 -30 -16 -17 -22 -36 -22 -70 0 -26 -4 -47 -9
-47 -8 0 -13 -48 -14 -127 0 -23 -5 -33 -16 -34 -13 -1 -12 -2 2 -6 18 -5 24
-23 7 -23 -19 0 -39 -67 -43 -145 -2 -44 -2 -70 0 -57 8 42 23 22 23 -32 0
-45 -3 -56 -19 -61 -11 -3 -23 -14 -26 -25 -9 -28 -36 -33 -57 -11 -10 11 -18
25 -18 31 0 5 -4 10 -10 10 -5 0 -10 8 -10 18 0 9 -14 35 -30 56 -17 22 -30
46 -30 53 0 7 -4 13 -10 13 -5 0 -10 7 -10 15 0 8 -4 15 -8 15 -5 0 -15 19
-22 43 -12 36 -88 127 -107 127 -10 0 -53 55 -53 68 0 7 -7 21 -16 29 -14 15
-14 17 0 25 10 6 16 22 16 43 0 34 28 75 50 75 6 0 15 11 20 25 5 14 16 25 25
25 8 0 15 6 15 13 0 7 15 18 33 25 43 15 47 15 47 -3 0 -8 -4 -15 -10 -15 -5
0 -20 -11 -33 -24 -20 -19 -21 -26 -11 -40 6 -9 10 -26 7 -36 -6 -22 8 -26 38
-10 15 9 17 15 9 30 -18 33 -12 60 12 60 12 0 19 3 15 6 -3 3 5 16 19 29 32
30 30 45 -6 45 -16 0 -31 -1 -33 -2 -2 -2 -11 5 -21 15 -17 17 -16 19 13 46
17 16 31 36 31 43 0 22 37 53 42 36 3 -7 5 20 4 61 0 57 3 76 17 85 12 9 13
16 5 24 -8 8 -3 19 20 41 18 16 32 36 32 44 0 9 14 24 30 34 17 9 32 25 35 35
3 9 18 19 33 21 15 2 29 5 32 5 3 1 14 -6 25 -16z m-4035 -1 c0 -5 -7 -11 -14
-14 -10 -4 -13 -1 -9 9 6 15 23 19 23 5z m55 -1 c-3 -5 -10 -10 -16 -10 -5 0
-9 5 -9 10 0 6 7 10 16 10 8 0 12 -4 9 -10z m1485 -122 c0 -28 -13 -37 -25
-18 -3 6 -2 10 3 10 5 0 7 15 5 33 -3 24 -2 29 6 17 6 -8 11 -27 11 -42z
m-2150 30 c0 -33 -14 -58 -31 -58 -25 0 -30 13 -16 44 12 26 47 37 47 14z
m2095 2 c3 -5 1 -10 -4 -10 -6 0 -11 5 -11 10 0 6 2 10 4 10 3 0 8 -4 11 -10z
m1355 -23 c0 -7 -9 -19 -20 -27 -11 -8 -20 -20 -20 -27 0 -7 -3 -13 -7 -13 -5
0 -18 -3 -30 -6 -18 -5 -25 0 -37 31 -9 21 -16 41 -16 46 0 5 29 9 65 9 46 0
65 -4 65 -13z m-5740 -6 c0 -5 -7 -11 -15 -15 -15 -5 -20 5 -8 17 9 10 23 9
23 -2z m87 -6 c8 -9 13 -19 10 -22 -6 -5 -37 21 -37 31 0 10 11 6 27 -9z
m2679 -65 c18 0 18 -14 -1 -30 -17 -14 -35 -5 -35 19 0 21 13 37 18 22 2 -6
10 -11 18 -11z m1630 -15 c3 -8 -1 -24 -10 -37 -16 -22 -16 -22 -16 15 0 37
16 50 26 22z m-1969 -9 c-3 -7 -1 -18 5 -24 12 -12 2 -32 -16 -32 -8 0 -19 7
-26 15 -10 13 -10 19 5 35 21 23 40 27 32 6z m3708 -6 c-3 -5 -11 -10 -16 -10
-6 0 -7 5 -4 10 3 6 11 10 16 10 6 0 7 -4 4 -10z m-6375 -30 c0 -19 -1 -19
-20 -3 -11 10 -20 19 -20 20 0 2 9 3 20 3 13 0 20 -7 20 -20z m2910 -15 c15
-9 21 -76 9 -92 -10 -11 -10 -16 -1 -22 21 -12 13 -119 -10 -148 -21 -26 -1
-42 44 -36 41 5 42 4 21 -11 -23 -17 -39 -20 -89 -18 -33 2 -48 21 -38 47 4 8
15 15 25 15 17 0 19 8 19 60 0 64 -6 71 -33 40 -22 -26 -21 -30 5 -30 20 0 21
-1 3 -20 l-18 -20 -14 20 c-11 16 -18 18 -33 10 -33 -17 -36 -11 -7 15 15 14
27 30 27 35 0 5 11 12 25 16 14 3 25 10 25 15 0 5 7 9 15 9 9 0 15 9 15 25 0
18 -5 25 -20 25 -13 0 -20 7 -20 19 0 20 -41 32 -107 31 -31 -1 -41 8 -27 23
7 6 172 -1 184 -8z m-335 -5 c-3 -5 -14 -10 -23 -9 -14 0 -13 2 3 9 27 11 27
11 20 0z m3735 5 c0 -8 -37 -43 -59 -54 -34 -19 -42 -12 -18 15 25 30 77 56
77 39z m-3670 -51 c0 -37 -14 -42 -33 -12 -7 11 -6 20 4 31 22 25 29 20 29
-19z m363 23 c8 -20 -9 -41 -27 -34 -23 9 -21 47 3 47 10 0 21 -6 24 -13z
m-2451 -19 c-12 -12 -64 -7 -69 7 -2 7 13 9 38 7 26 -3 37 -8 31 -14z m4065
-10 c-3 -8 -6 -5 -6 6 -1 11 2 17 5 13 3 -3 4 -12 1 -19z m-2059 -22 c3 -12
-1 -17 -10 -14 -7 3 -15 13 -16 22 -3 12 1 17 10 14 7 -3 15 -13 16 -22z m192
8 c0 -8 -11 -16 -25 -20 -20 -5 -25 -13 -26 -38 -3 -75 17 -96 25 -27 2 18 9
38 16 44 10 10 12 7 7 -10 -3 -13 1 -24 9 -27 17 -6 19 -36 3 -36 -7 0 -10
-12 -7 -32 7 -45 0 -62 -18 -47 -8 6 -14 20 -14 30 0 11 -4 19 -10 19 -5 0
-10 -4 -10 -10 0 -5 -5 -10 -11 -10 -5 0 -9 8 -8 18 2 9 -5 31 -14 49 -20 37
-23 99 -4 106 29 10 87 4 87 -9z m56 -1 c-1 -12 9 -19 29 -23 25 -5 27 -7 12
-13 -36 -14 -57 -8 -57 16 0 20 7 37 16 37 1 0 1 -8 0 -17z m-2316 -2 c0 -5
-7 -11 -15 -15 -9 -3 -15 0 -15 9 0 8 7 15 15 15 8 0 15 -4 15 -9z m4108 -2
c-2 -6 -8 -10 -13 -10 -5 0 -11 4 -13 10 -2 6 4 11 13 11 9 0 15 -5 13 -11z
m-1578 -39 c0 -23 -5 -31 -25 -36 -35 -9 -39 -2 -15 24 11 12 20 26 20 32 0 5
5 10 10 10 6 0 10 -13 10 -30z m-404 -43 c-3 -23 -8 -50 -11 -60 -5 -11 -1
-25 10 -37 21 -24 12 -44 -15 -30 -27 14 -43 12 -36 -5 3 -8 1 -15 -4 -15 -11
0 -11 -3 -14 70 -2 30 -6 69 -10 87 -7 30 -6 32 26 35 52 5 58 0 54 -45z
m-2471 13 c3 -5 1 -10 -4 -10 -6 0 -11 5 -11 10 0 6 2 10 4 10 3 0 8 -4 11
-10z m4455 -30 c0 -16 -6 -33 -14 -37 -8 -4 -16 -17 -19 -28 -2 -11 -5 0 -6
26 -1 41 11 69 31 69 4 0 8 -13 8 -30z m-1622 -71 c-7 -5 -19 -9 -27 -9 -11 0
-11 3 -1 14 6 8 18 12 27 9 12 -5 12 -7 1 -14z m-2545 4 c-7 -2 -19 -2 -25 0
-7 3 -2 5 12 5 14 0 19 -2 13 -5z m-1683 -33 c0 -5 7 -10 15 -10 8 0 15 -4 15
-10 0 -5 7 -10 15 -10 21 0 55 -32 55 -52 0 -9 6 -21 14 -25 7 -4 18 -18 25
-30 6 -13 21 -23 32 -23 16 0 19 -4 14 -20 -4 -11 -2 -20 4 -20 6 0 11 5 11
10 0 6 5 10 11 10 7 0 9 -9 6 -21 -7 -27 1 -49 19 -49 7 0 19 -10 25 -22 6
-12 20 -31 31 -42 10 -11 21 -31 24 -43 4 -16 14 -23 31 -23 22 0 25 -4 21
-25 -3 -14 -1 -25 3 -25 5 0 10 -10 10 -22 l2 -23 4 23 c7 35 30 26 39 -15 4
-24 9 -31 11 -20 9 37 28 9 31 -46 3 -49 6 -57 22 -57 11 0 20 -7 20 -15 0 -8
4 -15 9 -15 5 0 13 -14 16 -32 4 -18 11 -40 16 -50 5 -10 13 -26 18 -37 5 -10
12 -40 16 -67 9 -61 26 -114 38 -114 5 0 7 -11 5 -25 -3 -14 -1 -25 3 -25 5 0
9 -9 9 -19 0 -11 11 -28 25 -39 14 -11 25 -25 25 -31 0 -6 5 -11 10 -11 6 0
10 -9 10 -20 0 -20 -1 -19 -25 5 -14 14 -30 25 -35 25 -5 0 -12 9 -15 20 -3
11 -13 20 -21 20 -8 0 -20 11 -26 25 -6 13 -19 27 -29 30 -10 3 -21 15 -24 25
-3 10 -14 21 -23 24 -10 3 -26 21 -37 38 -10 18 -34 48 -52 65 -18 18 -33 39
-33 47 0 8 -4 18 -10 21 -5 3 -10 12 -10 18 0 7 4 6 10 -3 7 -11 10 -2 10 32
0 26 -4 50 -10 53 -5 3 -10 19 -10 35 0 36 -9 60 -22 60 -15 0 -37 32 -38 53
0 18 -40 25 -40 7 0 -5 4 -10 8 -10 4 0 13 -14 19 -31 10 -25 9 -34 -5 -50 -9
-10 -20 -19 -24 -19 -9 0 -58 49 -58 58 0 4 -11 20 -25 36 -14 16 -42 57 -62
92 -20 35 -42 64 -48 64 -6 0 -22 19 -35 43 -13 23 -29 46 -37 50 -7 4 -13 17
-13 27 0 11 -4 20 -8 20 -24 0 -44 158 -26 204 7 17 44 22 44 6z m4060 4 c0
-3 -6 -12 -14 -20 -11 -10 -17 -11 -22 -3 -3 6 0 15 7 20 16 10 29 12 29 3z
m240 -14 c0 -5 -5 -10 -11 -10 -5 0 -7 5 -4 10 3 6 8 10 11 10 2 0 4 -4 4 -10z
m2762 -26 c-5 -29 -21 -41 -32 -24 -8 13 -13 13 -31 2 -18 -12 -23 -12 -30 0
-14 21 -4 33 29 33 16 0 34 3 38 8 13 13 29 1 26 -19z m48 1 c0 -8 -4 -15 -10
-15 -5 0 -10 7 -10 15 0 8 5 15 10 15 6 0 10 -7 10 -15z m-3089 -31 c9 -11 8
-14 -5 -14 -15 0 -76 27 -76 33 0 9 71 -8 81 -19z m2917 -1 c-2 -10 -21 -27
-42 -38 -22 -11 -41 -26 -44 -33 -2 -7 -9 -12 -16 -12 -7 0 -43 -29 -79 -65
-37 -36 -69 -65 -72 -65 -15 0 -1 30 24 51 15 13 33 34 40 47 6 12 18 22 27
22 8 0 17 7 20 15 4 8 12 15 19 15 7 0 15 7 19 15 3 8 12 15 21 15 9 0 28 11
43 25 31 29 45 32 40 8z m-5090 -58 c-7 -16 -15 -22 -21 -16 -13 13 -1 41 17
41 13 0 14 -4 4 -25z m-138 5 c0 -5 -4 -10 -10 -10 -5 0 -10 -5 -10 -10 0 -11
-15 -31 -38 -53 -33 -31 -41 -37 -51 -37 -6 0 -11 -4 -11 -9 0 -5 -9 -11 -20
-14 -23 -6 -27 -27 -5 -27 8 0 15 4 15 10 0 5 18 13 40 16 26 4 41 13 45 25 3
10 15 21 25 24 10 3 21 14 24 23 3 9 15 23 26 30 40 25 36 -31 -5 -72 -15 -14
-14 -18 4 -38 12 -12 21 -29 21 -37 0 -9 9 -22 20 -29 11 -7 20 -20 20 -30 0
-10 4 -22 9 -27 11 -12 20 -99 22 -225 1 -101 -13 -173 -49 -252 -12 -26 -22
-61 -22 -78 0 -50 -76 -146 -88 -111 -8 23 -50 -42 -57 -85 -3 -24 -10 -44
-16 -44 -5 0 -9 -10 -9 -22 0 -17 -6 -23 -22 -23 -13 -1 -57 -4 -98 -8 -59 -6
-72 -5 -62 5 6 6 12 25 12 40 0 18 5 28 15 28 9 0 15 -9 15 -25 0 -14 5 -25
11 -25 8 0 10 16 6 50 -6 48 -5 50 18 50 23 0 24 -2 18 -50 -7 -64 8 -65 30
-2 10 26 26 54 37 62 11 8 20 22 20 30 0 9 5 21 11 27 6 6 9 26 7 44 l-3 34
-19 -51 c-14 -37 -26 -54 -48 -63 -25 -11 -32 -11 -38 0 -7 10 -11 10 -24 -1
-9 -7 -19 -10 -22 -7 -8 7 19 47 31 47 6 0 16 24 23 53 7 28 23 75 37 102 13
28 25 57 25 66 0 8 5 20 11 26 14 14 -4 49 -30 58 -13 4 -17 12 -14 25 3 11 0
20 -6 20 -6 0 -11 5 -11 10 0 6 7 10 15 10 8 0 15 5 15 10 0 6 -6 10 -14 10
-13 0 -32 -36 -38 -75 -2 -11 -12 -21 -24 -23 -18 -3 -22 -12 -28 -55 -3 -29
-6 -67 -6 -84 0 -18 -4 -33 -9 -33 -12 0 -21 -63 -11 -74 10 -10 -17 -84 -37
-104 -7 -7 -13 -20 -13 -28 0 -8 -5 -14 -11 -14 -7 0 -9 -11 -5 -31 6 -33 -10
-59 -38 -59 -9 0 -16 -5 -16 -11 0 -13 -25 -39 -38 -39 -6 0 -12 6 -15 14 -9
22 4 56 20 56 9 0 13 6 10 15 -4 8 8 29 28 50 37 37 44 55 23 55 -7 0 -24 9
-37 19 -23 18 -24 21 -12 60 6 23 15 41 20 41 4 0 22 22 39 49 18 27 39 51 47
55 32 12 13 26 -35 26 -27 0 -50 -4 -50 -10 0 -5 -7 -10 -16 -10 -8 0 -12 -5
-9 -10 3 -6 -1 -17 -9 -26 -9 -8 -16 -26 -16 -40 0 -13 -4 -24 -9 -24 -5 0
-12 -13 -16 -30 -4 -16 -11 -30 -16 -30 -5 0 -9 -12 -10 -27 0 -25 -1 -26 -9
-8 -5 11 -9 35 -9 53 -1 20 -9 41 -20 50 -23 21 -18 78 8 85 10 3 8 5 -8 6
-17 1 -21 5 -17 17 3 9 6 22 6 30 0 8 6 14 14 14 16 0 8 35 -22 98 -17 35 -25
39 -48 20 -38 -33 -44 -41 -44 -64 0 -13 -4 -24 -10 -24 -5 0 -10 -16 -10 -35
0 -19 -4 -35 -8 -35 -5 0 -14 -24 -20 -52 -31 -151 -49 -198 -74 -198 -10 0
-18 2 -18 5 0 7 33 59 41 65 14 10 45 138 85 348 2 12 11 22 19 22 11 0 15 11
15 40 0 29 -4 40 -15 40 -8 0 -15 -4 -15 -10 0 -5 -5 -10 -12 -10 -17 0 -118
-110 -124 -137 -4 -12 -12 -23 -19 -23 -7 0 -26 -16 -41 -36 -65 -82 -61 -79
-129 -77 -53 2 -63 -1 -58 -12 3 -9 -1 -15 -11 -15 -10 0 -16 9 -16 25 0 14
-4 25 -9 25 -5 0 -11 11 -13 24 -5 23 -3 24 60 22 44 -1 67 3 69 12 3 6 13 12
24 12 10 0 19 5 19 10 0 6 7 10 15 10 8 0 19 9 25 21 11 20 46 59 54 59 2 0
22 17 45 38 99 90 113 101 134 108 12 4 24 10 27 13 8 11 77 41 94 41 9 0 16
4 16 8 0 5 12 15 28 23 32 16 62 44 62 59 0 5 9 10 19 10 11 0 22 9 26 19 3
11 19 21 38 25 18 3 39 15 47 26 8 11 18 20 22 20 5 0 24 16 42 35 19 19 43
35 54 35 11 0 22 7 26 15 3 8 15 15 26 15 11 0 20 5 20 10 0 6 10 10 23 10 12
0 34 11 47 24 27 27 40 32 40 16z m200 -19 c0 -6 -4 -13 -10 -16 -5 -3 -10
-15 -10 -26 0 -22 -18 -26 -26 -5 -3 8 3 24 13 35 18 22 33 27 33 12z m3877
-7 c-3 -3 -12 -4 -19 -1 -8 3 -5 6 6 6 11 1 17 -2 13 -5z m-5434 -45 c9 -17
17 -37 17 -46 0 -13 -2 -13 -15 1 -8 8 -15 19 -15 25 0 6 -4 11 -10 11 -5 0
-10 9 -10 20 0 29 12 25 33 -11z m1607 1 c0 -5 -4 -10 -10 -10 -5 0 -10 -11
-10 -25 0 -16 -6 -25 -15 -25 -21 0 -19 40 3 56 21 16 32 17 32 4z m2085 -10
c8 -13 -15 -13 -35 0 -12 8 -11 10 7 10 12 0 25 -4 28 -10z m-2055 -71 c0 -22
5 -29 20 -29 24 0 28 -41 6 -59 -15 -13 -26 4 -26 40 0 12 -7 19 -20 19 -28 0
-36 27 -15 50 22 25 35 17 35 -21z m4661 -62 c-13 -13 -26 -3 -16 12 3 6 11 8
17 5 6 -4 6 -10 -1 -17z m1234 -17 c9 -16 22 -30 30 -30 8 0 15 -9 15 -20 0
-11 5 -20 11 -20 13 0 159 -147 159 -160 0 -5 9 -12 20 -15 11 -3 20 -13 20
-20 0 -8 10 -24 23 -37 12 -13 34 -39 48 -58 45 -59 63 -77 87 -84 28 -9 30
-46 3 -46 -11 0 -23 9 -26 20 -3 11 -17 23 -31 26 -13 3 -24 9 -24 13 0 4 -29
37 -65 73 -36 37 -65 70 -65 75 0 4 -14 17 -30 28 -16 11 -30 23 -30 28 0 4
-11 17 -25 29 -14 12 -37 42 -52 67 -15 26 -32 51 -39 56 -12 10 -64 91 -64
100 0 16 22 1 35 -25z m-2095 1 c0 -17 -27 -37 -37 -27 -7 7 17 46 27 46 6 0
10 -9 10 -19z m-3718 -46 c-4 -25 -26 -34 -37 -15 -11 17 3 40 23 40 15 0 18
-5 14 -25z m4558 13 c0 -7 -11 -18 -25 -25 -29 -13 -32 -7 -8 19 19 21 33 23
33 6z m-6213 -30 c-3 -7 -5 -2 -5 12 0 14 2 19 5 13 2 -7 2 -19 0 -25z m3733
2 c0 -5 -4 -10 -10 -10 -5 0 -10 5 -10 10 0 6 5 10 10 10 6 0 10 -4 10 -10z
m-2040 -40 c0 -24 -26 -38 -42 -22 -16 16 -2 42 22 42 13 0 20 -7 20 -20z
m1890 -46 c0 -13 6 -24 13 -25 6 0 -3 -5 -22 -11 -35 -10 -91 5 -91 23 0 12
44 11 56 -1 8 -8 15 -6 23 4 8 10 9 16 1 21 -16 10 -12 25 5 19 8 -4 15 -17
15 -30z m2610 18 c0 -4 -14 -7 -30 -8 -35 -1 -41 13 -7 18 24 4 37 1 37 -10z
m-2757 -14 c24 -14 37 -28 37 -42 0 -5 -8 -2 -18 7 -12 11 -22 13 -34 6 -20
-11 -31 2 -22 25 7 19 8 19 37 4z m-1697 -24 c-3 -9 -6 -20 -6 -25 0 -5 -11
-9 -25 -9 -27 0 -33 18 -13 38 18 18 51 15 44 -4z m2114 -28 c0 -8 -4 -18 -10
-21 -5 -3 -10 -17 -10 -31 0 -13 -4 -24 -10 -24 -5 0 -10 9 -10 20 0 10 -7 23
-15 28 -10 5 -13 15 -9 25 8 21 64 24 64 3z m3070 -3 c11 -10 20 -23 20 -30 0
-7 5 -13 10 -13 6 0 10 -9 10 -20 0 -10 9 -24 20 -30 11 -6 20 -19 20 -30 0
-10 5 -22 10 -25 6 -3 10 -26 10 -51 0 -24 4 -44 9 -44 15 0 33 -88 21 -109
-13 -26 -97 -17 -124 13 -26 29 -45 78 -46 118 -1 18 -2 53 -3 78 -2 41 0 45
20 42 17 -2 21 1 17 12 -3 9 -12 16 -19 16 -17 0 -24 38 -11 68 11 26 11 26
36 5z m-6618 -57 c-15 -32 -30 -77 -37 -113 -5 -24 -12 -33 -26 -33 -18 0 -18
2 -6 28 8 15 20 45 26 67 19 62 45 110 49 89 2 -9 -1 -26 -6 -38z m5858 38 c0
-11 -6 -13 -19 -9 -11 3 -22 1 -26 -5 -9 -15 -25 -2 -18 15 7 21 63 20 63 -1z
m-1580 -49 c-6 -19 -15 -35 -19 -35 -13 0 -40 -80 -34 -97 5 -12 2 -15 -10
-10 -9 3 -19 2 -21 -2 -3 -5 -23 -8 -45 -8 -21 0 -49 -8 -62 -17 -30 -21 -49
-20 -49 1 0 15 -2 14 -14 -3 -12 -15 -17 -17 -28 -6 -10 10 -10 17 0 32 15 25
16 38 0 22 -7 -7 -21 -12 -31 -12 -10 0 -21 -9 -24 -20 -3 -11 -9 -20 -13 -20
-4 0 -15 9 -25 20 -21 23 -53 26 -61 6 -3 -8 -12 -17 -21 -20 -10 -4 -13 -2
-10 8 5 11 -5 14 -47 14 -29 0 -62 4 -72 10 -17 10 -15 11 14 12 23 0 32 5 32
16 0 10 -6 14 -15 11 -8 -4 -17 -2 -20 3 -4 6 3 10 14 10 12 0 21 7 21 15 0
24 47 19 61 -6 6 -12 14 -17 18 -12 6 10 19 14 105 32 22 5 45 15 50 23 15 18
43 11 49 -12 4 -16 9 -18 37 -10 18 5 51 18 74 30 23 11 47 20 52 20 5 0 29
13 54 29 50 32 57 27 40 -24z m-2800 20 c0 -21 -5 -25 -29 -25 -17 0 -33 5
-36 10 -10 16 15 40 41 40 19 0 24 -5 24 -25z m1990 15 c0 -5 -7 -10 -15 -10
-8 0 -15 5 -15 10 0 6 7 10 15 10 8 0 15 -4 15 -10z m-240 -24 c0 -3 -4 -8
-10 -11 -5 -3 -10 -1 -10 4 0 6 5 11 10 11 6 0 10 -2 10 -4z m150 -3 c0 -5 -4
-14 -9 -22 -11 -17 -32 -5 -24 14 5 15 33 21 33 8z m-65 -13 c3 -5 1 -10 -4
-10 -6 0 -11 5 -11 10 0 6 2 10 4 10 3 0 8 -4 11 -10z m-165 -24 c30 -13 53
-70 58 -146 3 -62 2 -73 -9 -62 -7 7 -14 25 -15 40 -1 15 -3 36 -5 47 -5 41
-19 -239 -24 -480 -7 -294 -8 -318 -25 -410 -7 -38 -11 -93 -9 -121 4 -52 -6
-74 -34 -74 -7 0 -18 5 -23 10 -6 6 -44 15 -85 21 -134 19 -144 21 -154 29 -5
5 -46 13 -90 19 -123 17 -125 20 -125 149 0 97 3 115 32 191 45 117 117 185
224 213 51 14 56 25 17 34 -63 13 -98 28 -118 48 -44 43 -56 184 -26 318 9 44
45 108 64 116 4 2 7 10 7 17 0 7 8 15 18 19 9 3 33 12 52 20 25 11 65 14 145
12 61 -2 117 -6 125 -10z m2271 1 c-1 -4 -1 -18 -1 -30 0 -13 -9 -34 -20 -47
-11 -13 -20 -18 -20 -12 0 6 -3 17 -6 26 -4 11 0 16 15 16 18 0 20 4 14 31 -4
23 -3 31 6 28 7 -3 12 -8 12 -12z m-3907 -6 c14 -22 -7 -41 -46 -41 -32 0 -39
3 -36 17 3 15 21 24 70 32 4 0 9 -3 12 -8z m1934 -10 c3 -8 -1 -12 -9 -9 -7 2
-15 10 -17 17 -3 8 1 12 9 9 7 -2 15 -10 17 -17z m2400 2 c2 -9 -9 -13 -37
-13 -30 0 -41 4 -41 16 0 11 9 14 37 12 20 -2 38 -9 41 -15z m-2440 -43 c11 0
13 -3 6 -10 -6 -6 -23 -6 -47 1 -45 12 -49 24 -6 15 17 -3 39 -6 47 -6z
m-1958 -9 c0 -5 6 -9 13 -8 47 1 77 -5 77 -16 0 -7 -29 -27 -65 -43 -36 -16
-65 -32 -65 -36 0 -5 -5 -8 -11 -8 -6 0 -17 -7 -25 -15 -39 -38 -47 6 -11 60
12 19 28 35 35 35 6 0 12 6 12 14 0 13 13 23 33 25 4 1 7 -3 7 -8z m4370 -26
c0 -10 -11 -15 -35 -15 -33 0 -43 8 -28 23 13 14 63 7 63 -8z m-450 -24 c0
-14 -30 -41 -43 -40 -9 0 -8 2 1 6 6 2 12 13 12 24 0 10 7 19 15 19 8 0 15 -4
15 -9z m1650 -1 c0 -5 -4 -10 -10 -10 -5 0 -10 5 -10 10 0 6 5 10 10 10 6 0
10 -4 10 -10z m-130 -34 c0 -13 6 -26 14 -29 27 -11 49 -54 37 -74 -7 -12 -10
-13 -11 -4 0 7 -10 24 -22 37 -55 55 -57 59 -47 77 14 24 29 21 29 -7z m-5332
-6 c15 0 22 -6 22 -20 0 -15 -7 -20 -25 -20 -14 0 -25 -4 -25 -9 0 -25 14 -41
36 -41 15 0 24 -6 24 -15 0 -9 -10 -15 -26 -15 -34 0 -29 -30 9 -48 32 -16 35
-32 7 -39 -27 -7 -22 -35 8 -48 25 -11 32 -48 7 -39 -11 5 -15 -1 -15 -20 0
-16 6 -26 14 -26 16 0 30 -30 19 -41 -4 -4 -20 -5 -36 -2 -31 6 -31 6 -48 153
-6 58 -15 110 -20 116 -5 6 -11 37 -15 69 -7 58 -7 58 17 52 13 -4 34 -7 47
-7z m1846 -6 c4 -10 1 -14 -6 -12 -15 5 -23 28 -10 28 5 0 13 -7 16 -16z
m2384 -6 c19 -19 15 -25 -18 -30 -34 -5 -43 2 -34 26 7 19 35 21 52 4z m1422
-65 c0 -7 -4 -13 -10 -13 -12 0 -30 33 -30 56 0 14 3 13 20 -6 11 -13 20 -29
20 -37z m-150 3 c0 -21 -6 -36 -15 -40 -16 -6 -19 12 -9 52 9 33 24 26 24 -12z
m390 24 c0 -5 -4 -10 -10 -10 -5 0 -10 5 -10 10 0 6 5 10 10 10 6 0 10 -4 10
-10z m100 0 c0 -5 -11 -10 -25 -10 -14 0 -25 5 -25 10 0 6 11 10 25 10 14 0
25 -4 25 -10z m-3866 -24 c44 -9 61 -18 67 -33 9 -24 46 -33 143 -33 52 0 79
-5 103 -19 30 -19 31 -23 38 -103 13 -155 -4 -244 -56 -301 -30 -33 -39 -37
-84 -37 -50 0 -112 13 -150 30 -11 5 -36 11 -55 12 -30 3 -35 7 -38 31 -3 22
-8 28 -25 25 -12 -2 -23 -13 -27 -28 -8 -30 5 -74 20 -65 6 3 19 4 29 0 17 -5
18 -11 10 -38 -5 -17 -9 -58 -9 -89 0 -56 1 -59 38 -82 20 -14 53 -26 72 -28
l35 -3 0 60 0 60 44 3 c24 2 49 -2 54 -7 6 -6 19 -11 29 -11 14 0 18 -8 18
-34 0 -19 -4 -38 -10 -41 -5 -3 -10 -17 -10 -30 0 -25 -35 -124 -50 -139 -12
-12 -64 2 -88 24 -11 11 -33 22 -49 26 -15 4 -43 16 -62 26 -19 11 -57 22 -84
25 -51 6 -97 35 -97 60 0 8 -4 11 -10 8 -5 -3 -10 -19 -10 -35 0 -41 -19 -79
-44 -85 -12 -4 -30 -10 -41 -14 -11 -5 -33 -14 -48 -20 -45 -18 -127 -14 -143
7 -15 19 -20 187 -5 196 4 3 31 3 60 -1 45 -5 51 -8 51 -29 0 -21 3 -23 33
-17 17 3 38 11 45 17 12 12 34 117 26 126 -3 2 -48 7 -102 10 -53 3 -103 9
-110 13 -17 11 -15 89 4 183 13 62 22 84 43 101 48 39 186 39 226 0 17 -18 39
-163 31 -206 -3 -14 -8 -66 -12 -116 -4 -66 -3 -87 5 -79 15 14 51 290 65 499
6 94 15 176 19 183 10 15 34 14 111 -2z m3201 -14 c6 -17 -12 -33 -35 -29 -9
1 -15 13 -15 28 -1 21 3 25 21 21 13 -2 25 -11 29 -20z m615 14 c0 -2 -7 -6
-15 -10 -8 -3 -15 -1 -15 4 0 6 7 10 15 10 8 0 15 -2 15 -4z m-2509 -35 l24
-19 -22 -66 c-13 -35 -23 -74 -23 -85 0 -10 -8 -33 -17 -49 -15 -27 -16 -35
-5 -67 15 -41 8 -91 -14 -99 -9 -3 -12 -10 -9 -16 11 -18 -6 -50 -26 -50 -12
0 -19 -7 -19 -19 0 -29 -11 -51 -25 -51 -17 0 -25 -23 -25 -76 0 -30 -5 -46
-15 -50 -8 -4 -15 -14 -15 -24 0 -10 -8 -21 -17 -23 -11 -3 -7 -5 10 -6 15 0
27 4 27 10 0 7 10 21 23 33 25 23 42 66 26 66 -16 0 -10 38 7 44 9 4 19 5 21
3 2 -2 4 -40 4 -85 1 -84 -14 -125 -49 -137 -10 -2 -30 -16 -46 -30 -16 -14
-39 -25 -52 -25 -13 0 -26 -4 -29 -10 -3 -5 -19 -10 -34 -10 -15 0 -32 -5 -39
-12 -10 -10 -18 -7 -37 14 -14 15 -25 30 -25 34 0 4 -8 13 -17 20 -17 12 -17
13 -1 14 9 0 20 -5 23 -10 4 -7 11 -7 18 -2 7 5 30 13 52 16 74 13 126 46 73
46 -24 0 -82 -17 -113 -33 -13 -7 -20 -6 -23 2 -2 6 -12 11 -23 11 -22 0 -54
17 -81 43 -29 28 -68 107 -68 138 0 15 -4 30 -9 33 -13 8 -21 78 -22 195 l-1
105 34 28 c18 15 51 33 73 40 22 6 45 16 52 21 7 5 48 9 92 10 93 2 106 -6
133 -88 12 -38 16 -44 17 -24 1 15 8 43 16 62 8 20 15 47 15 61 0 13 9 45 19
69 20 45 32 52 112 66 4 1 17 -8 30 -18z m782 0 c5 -1 6 -5 3 -10 -3 -5 -15
-7 -26 -4 -11 3 -20 0 -20 -6 0 -6 -7 -11 -15 -11 -15 0 -20 21 -8 33 3 4 18
5 32 3 14 -2 30 -5 34 -5z m-5403 -98 c0 -15 -46 -17 -55 -3 -3 5 2 24 12 41
l18 30 12 -28 c7 -15 12 -34 13 -40z m6340 25 c0 -24 3 -53 6 -65 5 -19 2 -23
-14 -23 -12 0 -26 9 -32 21 -7 11 -20 29 -31 40 -26 26 -25 57 4 62 63 12 67
10 67 -35z m106 17 c3 -14 10 -25 15 -25 5 0 9 -18 9 -40 l0 -40 -45 2 c-24 1
-39 5 -34 9 7 4 8 19 4 39 -13 59 37 112 51 55z m194 -10 c0 -19 -4 -35 -9
-35 -5 0 -11 -18 -15 -41 -8 -49 -31 -48 -31 2 0 35 32 109 47 109 4 0 8 -16
8 -35z m-1250 -31 c0 -10 -13 -14 -40 -14 -28 0 -40 4 -40 14 0 18 15 23 52
18 15 -2 28 -11 28 -18z m-5360 -89 c0 -28 -4 -35 -20 -35 -15 0 -20 7 -20 29
0 26 9 38 33 40 4 1 7 -15 7 -34z m4750 0 c0 -20 -7 -49 -15 -65 -8 -16 -12
-35 -9 -43 2 -7 -2 -20 -11 -27 -8 -7 -15 -18 -15 -26 0 -7 -8 -19 -18 -26
-10 -7 -29 -31 -42 -53 -13 -22 -28 -41 -32 -43 -9 -4 -11 -72 -2 -72 4 0 15
9 25 21 10 11 26 19 36 18 10 -1 26 1 36 6 32 13 44 -12 17 -35 -13 -11 -29
-20 -37 -20 -7 0 -13 -4 -13 -8 0 -5 -16 -14 -35 -22 -32 -13 -49 -40 -25 -40
6 0 10 5 10 10 0 17 20 11 44 -13 17 -17 21 -28 15 -40 -7 -11 -4 -19 7 -25
20 -11 10 -52 -12 -52 -16 0 -47 -29 -64 -59 -9 -18 -8 -21 10 -21 21 0 22 -1
24 -52 1 -27 -8 -42 -45 -79 -44 -42 -47 -49 -54 -112 -4 -37 -11 -67 -16 -67
-5 0 -9 -10 -9 -23 0 -13 -8 -32 -18 -43 -9 -10 -23 -30 -29 -44 -10 -21 -11
-15 -7 40 11 159 37 375 45 378 5 2 9 33 9 68 0 35 4 64 9 64 4 0 11 35 14 78
7 90 14 112 33 112 12 0 12 4 4 20 -7 13 -7 26 -1 38 10 18 27 165 23 195 -1
12 6 21 18 24 13 3 20 14 20 29 0 19 7 24 38 29 20 4 42 8 47 10 22 7 25 4 25
-30z m588 9 c18 -18 15 -24 -12 -24 -14 0 -28 -5 -32 -11 -12 -20 -26 18 -14
40 11 21 33 19 58 -5z m-5188 -4 c0 -11 5 -20 11 -20 5 0 7 -4 4 -10 -6 -10
-55 -15 -55 -5 0 2 5 16 12 30 13 30 28 33 28 5z m467 -2 c-3 -13 -9 -36 -13
-53 -9 -39 -34 -62 -70 -67 -21 -2 -30 2 -32 15 -2 9 1 17 7 17 6 0 11 9 11
19 0 11 4 22 9 26 5 3 12 19 16 35 6 26 11 30 42 30 32 0 35 -2 30 -22z m5648
-33 c0 -5 -10 -11 -22 -13 -16 -2 -23 2 -23 13 0 11 7 15 23 13 12 -2 22 -7
22 -13z m55 5 c0 -5 -7 -10 -15 -10 -8 0 -15 5 -15 10 0 6 7 10 15 10 8 0 15
-4 15 -10z m125 0 c4 -6 -12 -10 -39 -10 -25 0 -46 5 -46 10 0 6 18 10 39 10
22 0 43 -4 46 -10z m85 0 c0 -5 -7 -10 -15 -10 -8 0 -15 5 -15 10 0 6 7 10 15
10 8 0 15 -4 15 -10z m100 -31 c0 -14 -37 -10 -43 4 -4 10 2 13 19 9 13 -2 24
-8 24 -13z m-6970 1 c0 -5 -4 -10 -10 -10 -5 0 -10 5 -10 10 0 6 5 10 10 10 6
0 10 -4 10 -10z m350 -10 c0 -11 6 -20 13 -21 10 0 10 -2 0 -6 -17 -6 -17 -53
0 -53 8 0 19 -11 25 -25 11 -23 10 -25 -13 -25 -14 0 -25 -4 -25 -10 0 -5 -18
-10 -40 -10 -30 0 -40 4 -40 16 0 11 6 13 19 9 18 -5 18 -3 10 36 -6 23 -8 48
-5 56 9 22 26 14 26 -12 0 -14 5 -25 10 -25 6 0 10 11 10 25 0 14 -4 25 -10
25 -5 0 -10 9 -10 20 0 11 7 20 15 20 8 0 15 -9 15 -20z m60 0 c0 -11 -7 -20
-15 -20 -17 0 -18 2 -9 24 9 23 24 20 24 -4z m6610 10 c0 -5 -9 -10 -20 -10
-11 0 -20 5 -20 10 0 6 9 10 20 10 11 0 20 -4 20 -10z m-1364 -25 c14 -13 13
-15 -5 -15 -12 0 -21 -4 -21 -10 0 -5 -7 -10 -15 -10 -16 0 -19 9 -9 34 8 20
31 21 50 1z m-3099 -86 c12 -71 9 -134 -7 -144 -4 -2 -10 37 -13 88 -4 51 -10
103 -13 116 -5 17 -3 22 6 19 8 -2 19 -35 27 -79z m4581 74 c-10 -2 -26 -2
-35 0 -10 3 -2 5 17 5 19 0 27 -2 18 -5z m-6718 -38 c0 -8 5 -15 10 -15 6 0
10 -9 10 -20 0 -11 -4 -20 -10 -20 -5 0 -10 9 -10 19 0 11 -4 23 -10 26 -5 3
-10 10 -10 16 0 5 5 9 10 9 6 0 10 -7 10 -15z m1118 -2 c15 -9 29 -18 31 -20
12 -8 -26 -33 -50 -33 -26 0 -29 3 -29 35 0 39 9 43 48 18z m2776 -27 c10 -20
15 -42 12 -54 -16 -51 -40 -260 -43 -386 -4 -136 -4 -138 -26 -132 -12 3 -27
6 -33 6 -6 0 -23 11 -37 24 -22 20 -25 29 -20 67 3 24 10 52 14 61 5 9 13 45
19 80 6 35 14 84 18 109 9 50 1 65 -46 78 -29 8 -55 4 -48 -8 3 -4 0 -25 -5
-47 -6 -21 -14 -55 -19 -74 -40 -158 -48 -180 -64 -180 -6 0 -32 10 -58 22
-51 25 -58 44 -33 88 8 14 14 41 15 60 0 45 22 140 32 140 5 0 8 13 8 28 0 16
13 47 30 70 35 49 79 65 125 46 48 -19 95 -27 95 -15 0 5 4 21 10 35 12 32 30
26 54 -18z m2436 33 c0 -17 -27 -39 -49 -39 -12 0 -21 6 -21 15 0 8 7 15 15
15 8 0 15 5 15 10 0 6 9 10 20 10 11 0 20 -5 20 -11z m-6154 -24 c-16 -16 -36
-20 -36 -7 0 14 12 22 32 22 17 0 18 -2 4 -15z m6076 -10 c9 -21 8 -36 -7 -78
-10 -29 -28 -65 -39 -82 -18 -25 -21 -42 -18 -104 1 -41 7 -78 12 -81 13 -8
10 -150 -2 -150 -5 0 -7 -9 -3 -20 3 -11 1 -28 -5 -37 -10 -15 -11 -14 -7 10
4 24 2 28 -14 24 -11 -3 -22 -1 -25 4 -3 5 -6 77 -7 158 -2 141 -3 150 -25
169 -18 16 -22 29 -20 73 1 30 5 62 10 72 5 10 5 17 -2 17 -14 0 -13 37 3 43
6 3 40 6 75 6 58 1 63 -1 74 -24z m-5345 2 c45 -1 84 -5 88 -8 11 -12 -165
-22 -179 -10 -16 13 -366 12 -383 -1 -6 -5 -51 -13 -100 -18 -93 -9 -135 -16
-168 -30 -11 -4 -62 -16 -112 -26 -51 -10 -93 -21 -93 -26 0 -4 -10 -8 -23 -8
-13 0 -27 -4 -33 -9 -8 -9 -68 -15 -106 -12 -11 0 -18 9 -18 21 0 17 7 20 44
20 25 0 47 4 50 9 3 5 30 12 61 16 30 3 57 11 60 16 4 5 24 9 45 9 21 0 41 4
44 9 3 4 43 12 88 16 45 4 90 11 100 16 9 5 42 10 73 10 30 1 58 6 61 11 4 7
82 8 213 3 113 -3 243 -7 288 -8z m6033 3 c0 -5 -4 -10 -10 -10 -5 0 -10 5
-10 10 0 6 5 10 10 10 6 0 10 -4 10 -10z m-7153 -23 c-6 -20 -27 -19 -27 2 0
14 5 19 15 14 9 -3 14 -10 12 -16z m5451 -4 c11 -11 10 -13 -7 -13 -11 0 -23
-4 -26 -10 -9 -15 -32 -12 -39 5 -3 8 2 21 10 29 15 16 39 12 62 -11z m-4110
-39 c32 -22 28 -44 -8 -44 -27 0 -30 3 -30 30 0 34 6 36 38 14z m-1308 -4 c0
-5 -2 -10 -4 -10 -2 0 -12 -3 -20 -6 -12 -5 -15 -2 -10 10 7 17 34 22 34 6z
m2000 0 c0 -5 -4 -10 -9 -10 -6 0 -13 5 -16 10 -3 6 1 10 9 10 9 0 16 -4 16
-10z m3380 -30 c0 -5 7 -10 15 -10 8 0 15 -4 15 -8 0 -17 -25 -32 -52 -32 -28
0 -34 12 -22 44 7 17 44 22 44 6z m-4916 -58 c-16 -11 -30 -42 -38 -84 -8 -46
-25 -48 -63 -10 -23 22 -53 71 -53 87 0 4 58 10 130 13 19 1 30 -2 24 -6z
m860 -8 c21 -20 20 -31 -1 -36 -30 -7 -53 2 -53 21 0 34 28 42 54 15z m4076
-44 c13 -8 13 -11 -2 -27 -14 -13 -18 -14 -18 -3 0 11 -3 11 -12 2 -7 -7 -17
-12 -24 -12 -14 0 -27 28 -18 41 7 12 55 11 74 -1z m-4078 -39 c26 -25 18 -48
-16 -48 -32 0 -39 8 -30 42 7 30 18 31 46 6z m4968 -26 c0 -14 -4 -25 -10 -25
-11 0 -14 33 -3 43 11 11 13 8 13 -18z m-907 -25 c10 0 14 -6 11 -15 -4 -10
-20 -15 -45 -15 -42 0 -45 5 -27 44 11 25 11 25 28 6 10 -11 25 -20 33 -20z
m-4073 -40 c0 -5 6 -10 14 -10 19 0 31 -19 20 -30 -5 -5 -21 -6 -36 -3 -21 4
-28 11 -28 29 0 15 6 24 15 24 8 0 15 -4 15 -10z m4047 -46 c29 -29 28 -31
-12 -36 -27 -3 -30 0 -33 30 -4 39 10 41 45 6z m-4308 -52 c-6 -18 -9 -45 -6
-59 3 -15 3 -33 0 -40 -8 -21 -33 4 -33 33 0 13 -4 24 -10 24 -5 0 -10 11 -10
25 0 14 5 25 10 25 6 0 16 11 22 25 10 22 14 24 25 12 10 -10 11 -20 2 -45z
m117 44 c8 -8 14 -28 14 -44 0 -26 -4 -31 -34 -36 -19 -4 -37 -13 -40 -22 -7
-19 21 -31 37 -15 14 14 37 14 37 0 0 -15 -26 -39 -42 -39 -34 0 -68 25 -68
50 0 34 26 71 45 64 8 -4 15 -1 15 5 0 6 -9 11 -20 11 -23 0 -26 10 -8 28 16
16 46 15 64 -2z m-345 -47 c9 -17 7 -24 -10 -40 -12 -11 -21 -24 -21 -29 0 -6
-11 -10 -25 -10 -16 0 -25 -6 -25 -15 0 -19 56 -21 63 -2 2 6 8 8 13 4 4 -4
-1 -17 -13 -28 -17 -17 -27 -20 -67 -14 -35 6 -46 11 -46 26 0 30 21 67 42 73
16 4 19 11 16 30 -5 24 -2 26 28 26 24 0 37 -6 45 -21z m525 -3 c23 -24 16
-36 -22 -36 -44 0 -42 -19 4 -39 22 -10 32 -22 32 -36 0 -19 -4 -21 -27 -17
-40 7 -82 51 -83 85 0 48 17 70 52 63 16 -3 36 -12 44 -20z m1930 0 c21 -21
17 -33 -12 -39 -20 -3 -27 1 -35 20 -5 13 -9 26 -9 29 0 10 43 3 56 -10z
m-2406 -22 c0 -8 -4 -12 -10 -9 -5 3 -10 10 -10 16 0 5 5 9 10 9 6 0 10 -7 10
-16z m4518 -19 c11 -10 -15 -34 -41 -38 -44 -6 -57 1 -57 30 0 24 2 25 48 18
26 -4 48 -8 50 -10z m-2218 -55 c0 -5 -4 -10 -10 -10 -5 0 -10 5 -10 10 0 6 5
10 10 10 6 0 10 -4 10 -10z m-50 -20 c0 -5 -2 -10 -4 -10 -3 0 -8 5 -11 10 -3
6 -1 10 4 10 6 0 11 -4 11 -10z m2210 1 c0 -5 11 -12 25 -15 30 -8 33 -26 5
-26 -11 0 -20 -5 -20 -11 0 -6 -12 -9 -27 -7 -21 2 -27 8 -25 22 5 30 42 63
42 37z m-3990 -50 c0 -5 9 -13 20 -16 26 -8 26 -35 0 -35 -11 0 -23 -7 -26
-15 -9 -21 14 -45 42 -45 15 0 24 -6 24 -15 0 -11 -12 -15 -44 -15 l-43 0 -7
46 c-11 83 -8 104 14 104 11 0 20 -4 20 -9z m2425 -1 c3 -5 -2 -10 -12 -10
-10 0 -29 -7 -42 -16 -18 -13 -25 -14 -31 -4 -4 7 -3 19 3 26 14 16 73 18 82
4z m-603 -25 c7 -9 19 -22 26 -30 6 -7 12 -18 12 -24 0 -6 6 -11 13 -11 7 0
19 -9 27 -20 8 -11 22 -20 31 -20 9 0 22 -7 29 -15 14 -17 95 -21 104 -6 4 5
24 12 46 16 22 4 40 11 40 16 0 5 9 9 19 9 11 0 23 5 26 10 6 10 45 14 45 4 0
-15 -30 -32 -67 -38 -22 -4 -49 -15 -60 -25 -40 -38 -151 -38 -191 -1 -11 11
-32 22 -46 26 -15 3 -36 20 -48 38 -12 17 -28 37 -35 44 -17 18 -16 42 2 42 8
0 20 -7 27 -15z m-772 -60 c0 -19 -7 -64 -16 -101 -8 -37 -14 -83 -12 -103 3
-35 4 -36 48 -39 44 -3 130 15 130 27 0 4 16 15 35 25 19 11 35 23 35 27 0 4
13 10 30 14 16 4 32 11 35 16 8 13 109 11 122 -2 7 -7 14 3 21 34 7 24 18 50
27 57 8 7 15 18 15 24 0 21 47 66 69 66 31 0 26 -11 -23 -61 -27 -28 -46 -57
-50 -79 -11 -56 -27 -80 -52 -80 -13 0 -26 5 -29 10 -9 14 -68 12 -96 -3 -13
-6 -45 -27 -71 -45 -26 -17 -53 -32 -60 -32 -8 0 -19 -5 -24 -10 -18 -18 -106
-22 -149 -7 l-40 14 3 69 c4 102 12 207 18 215 11 19 34 -5 34 -36z m410 35
c0 -5 -2 -10 -4 -10 -3 0 -8 5 -11 10 -3 6 -1 10 4 10 6 0 11 -4 11 -10z
m2530 0 c0 -5 11 -10 25 -10 16 0 25 -6 25 -15 0 -9 -9 -15 -24 -15 -13 0 -26
-6 -28 -12 -7 -19 -38 16 -38 41 0 14 6 21 20 21 11 0 20 -4 20 -10z m-6 -96
c24 -23 20 -44 -9 -44 -14 0 -25 3 -25 8 0 4 -3 17 -6 30 -8 27 16 31 40 6z
m-1004 -23 c0 -5 18 -11 40 -15 22 -3 40 -11 40 -16 0 -6 11 -10 25 -10 14 0
25 -4 25 -9 0 -6 17 -11 38 -13 30 -2 38 -7 40 -25 4 -24 -21 -33 -34 -12 -3
6 -17 9 -31 6 -13 -2 -30 1 -37 8 -7 7 -27 16 -44 20 -18 3 -32 11 -32 16 0 5
-9 9 -20 9 -11 0 -20 5 -20 10 0 15 -176 13 -203 -2 -12 -7 -24 -16 -27 -19
-9 -12 -93 -22 -86 -11 11 18 64 41 111 48 25 3 45 10 45 15 0 5 38 9 85 9 47
0 85 -4 85 -9z m-3060 -31 c0 -5 -5 -10 -11 -10 -5 0 -7 5 -4 10 3 6 8 10 11
10 2 0 4 -4 4 -10z m148 -28 c2 -7 -3 -12 -12 -12 -9 0 -16 7 -16 16 0 17 22
14 28 -4z m3932 -23 c0 -5 10 -9 23 -9 22 -1 22 -1 -3 -15 -32 -19 -45 -18
-64 1 -26 25 -20 41 14 36 17 -2 30 -8 30 -13z m-20 -88 c0 -5 12 -12 26 -15
l27 -7 -21 -20 c-23 -21 -42 -25 -42 -9 0 6 -7 10 -15 10 -9 0 -15 9 -15 25 0
18 5 25 20 25 11 0 20 -4 20 -9z"/>
<path d="M6150 11170 c0 -5 13 -10 29 -10 17 0 33 5 36 10 4 6 -8 10 -29 10
-20 0 -36 -4 -36 -10z"/>
<path d="M6250 11120 c0 -5 5 -10 10 -10 6 0 10 5 10 10 0 6 -4 10 -10 10 -5
0 -10 -4 -10 -10z"/>
<path d="M5665 10839 c-49 -5 -91 -13 -93 -19 -2 -5 -9 -10 -17 -10 -7 0 -18
-7 -25 -15 -7 -8 -20 -15 -30 -15 -10 0 -23 -6 -29 -14 -9 -11 -6 -12 16 -8
16 3 32 11 36 18 5 8 25 14 47 14 21 0 42 5 45 10 3 6 24 10 46 10 43 0 119
21 119 32 0 5 -6 7 -12 7 -7 -1 -53 -6 -103 -10z"/>
<path d="M5423 10813 c-18 -2 -33 -8 -33 -14 0 -15 46 -10 60 6 7 8 11 14 9
13 -2 0 -19 -3 -36 -5z"/>
<path d="M4205 8843 c-11 -3 -24 -9 -29 -14 -6 -5 -20 -9 -32 -9 -12 0 -27 -7
-35 -16 -11 -13 -9 -14 17 -8 16 4 37 7 47 6 9 0 17 3 17 9 0 5 9 9 20 9 11 0
20 4 20 9 0 5 8 12 18 14 14 4 13 5 -3 5 -11 0 -29 -2 -40 -5z"/>
<path d="M4180 8739 c0 -5 7 -9 15 -9 24 0 19 -51 -5 -57 -11 -3 -20 -14 -20
-24 0 -16 3 -17 18 -8 22 14 52 65 52 88 0 13 -8 18 -30 19 -16 0 -30 -4 -30
-9z"/>
<path d="M4140 8730 c20 -13 33 -13 25 0 -3 6 -14 10 -23 10 -15 0 -15 -2 -2
-10z"/>
<path d="M4175 8701 c-3 -5 -1 -12 5 -16 5 -3 10 1 10 9 0 18 -6 21 -15 7z"/>
<path d="M5334 8635 c-23 -36 -10 -42 25 -12 24 20 27 26 15 31 -22 8 -22 9
-40 -19z"/>
<path d="M4650 8590 c-12 -8 -11 -10 7 -10 12 0 25 5 28 10 8 13 -15 13 -35 0z"/>
<path d="M3981 8514 c0 -11 3 -14 6 -6 3 7 2 16 -1 19 -3 4 -6 -2 -5 -13z"/>
<path d="M4425 8474 c-8 -9 -23 -30 -32 -47 -15 -30 -15 -31 0 -18 10 7 17 20
17 27 0 8 4 14 10 14 5 0 14 9 20 20 13 24 7 26 -15 4z"/>
<path d="M4062 8364 c-21 -25 -22 -27 -5 -40 10 -7 27 -16 37 -20 11 -4 24
-11 30 -16 6 -5 35 -24 64 -43 49 -32 53 -33 47 -12 -14 45 -31 69 -60 85 -16
10 -42 29 -56 45 -14 15 -28 27 -30 27 -2 0 -14 -12 -27 -26z"/>
<path d="M4900 7963 c-8 -2 -21 -7 -29 -9 -8 -2 -12 -7 -9 -9 3 -3 22 1 44 9
35 13 30 21 -6 9z"/>
<path d="M4708 7913 c6 -2 18 -2 25 0 6 3 1 5 -13 5 -14 0 -19 -2 -12 -5z"/>
<path d="M4643 7903 c9 -2 23 -2 30 0 6 3 -1 5 -18 5 -16 0 -22 -2 -12 -5z"/>
<path d="M4588 7893 c6 -2 18 -2 25 0 6 3 1 5 -13 5 -14 0 -19 -2 -12 -5z"/>
<path d="M5365 7340 c-8 -13 4 -32 16 -25 12 8 12 35 0 35 -6 0 -13 -4 -16
-10z"/>
<path d="M5325 7262 c-6 -17 -5 -19 15 -22 28 -4 40 0 40 14 0 20 -48 27 -55
8z"/>
<path d="M7015 8830 c-3 -5 -1 -10 4 -10 6 0 11 5 11 10 0 6 -2 10 -4 10 -3 0
-8 -4 -11 -10z"/>
<path d="M5923 8993 c-7 -2 -13 -11 -13 -19 0 -8 6 -14 13 -14 21 0 40 17 33
29 -8 12 -13 12 -33 4z"/>
<path d="M5833 8959 c-70 -32 -49 -54 22 -25 19 8 35 22 35 30 0 20 -4 19 -57
-5z"/>
<path d="M6876 8201 c-4 -7 -5 -15 -2 -18 9 -9 19 4 14 18 -4 11 -6 11 -12 0z"/>
<path d="M5931 4632 c-22 -7 -10 -22 17 -21 15 1 34 0 42 -2 8 -2 15 3 15 11
0 14 -45 22 -74 12z"/>
<path d="M4127 4493 c-3 -16 -1 -35 4 -43 6 -10 8 -2 9 28 0 48 -5 55 -13 15z"/>
<path d="M3175 4314 c14 -20 30 -55 36 -78 6 -23 13 -47 15 -53 6 -21 20 -15
32 13 8 17 9 31 2 44 -7 14 -6 23 5 34 8 8 15 19 15 25 0 10 -8 12 -62 16 -9
0 -25 8 -36 18 -30 28 -33 20 -7 -19z"/>
<path d="M2896 4123 c-12 -12 -6 -61 9 -67 12 -4 15 3 15 29 0 33 -11 51 -24
38z"/>
<path d="M3537 4031 c-3 -12 -2 -23 3 -26 11 -7 20 19 10 34 -5 9 -9 7 -13 -8z"/>
<path d="M2670 3909 c0 -6 6 -16 13 -23 6 -7 23 -27 36 -44 13 -18 28 -32 33
-32 13 0 -10 39 -38 65 -13 12 -24 27 -24 34 0 6 -4 11 -10 11 -5 0 -10 -5
-10 -11z"/>
<path d="M3470 3886 c0 -2 7 -6 15 -10 8 -3 15 -1 15 4 0 6 -7 10 -15 10 -8 0
-15 -2 -15 -4z"/>
<path d="M2410 3796 c0 -14 5 -28 10 -31 6 -3 15 -26 21 -51 7 -25 17 -44 25
-44 8 0 14 -7 14 -15 0 -8 5 -15 10 -15 7 0 7 7 -1 21 -7 15 -8 24 0 32 7 7
14 2 22 -16 7 -15 16 -27 21 -27 5 0 0 -14 -12 -30 -24 -34 -47 -33 -81 1 -17
17 -22 18 -34 6 -8 -9 -12 -27 -10 -45 3 -25 0 -32 -18 -36 -12 -3 7 -3 43 0
36 2 67 9 68 14 2 6 21 10 43 10 28 0 39 -4 39 -15 0 -32 28 -14 34 23 20 115
20 112 -8 112 -14 0 -26 5 -26 10 0 6 -8 10 -18 10 -18 0 -40 19 -57 49 -13
22 63 6 83 -17 10 -11 27 -22 40 -26 12 -4 22 -12 22 -17 0 -15 68 -41 124
-48 57 -7 68 -21 30 -42 -27 -14 -27 -14 27 -20 82 -9 86 -2 34 66 -51 65 -98
96 -118 76 -6 -6 -28 -11 -48 -11 -31 0 -38 4 -41 23 -2 16 -11 23 -30 25 -16
2 -28 8 -28 13 0 5 -9 9 -20 9 -11 0 -20 5 -20 10 0 14 -36 13 -60 -2 -15 -10
-22 -9 -38 5 -26 24 -42 21 -42 -7z"/>
<path d="M2670 3775 c-10 -13 -9 -15 8 -15 15 0 20 5 16 15 -4 8 -7 15 -9 15
-1 0 -8 -7 -15 -15z"/>
<path d="M1950 3725 c0 -38 15 -45 35 -18 11 14 27 17 100 15 66 -2 86 0 83
10 -6 18 -43 26 -135 27 l-83 1 0 -35z"/>
<path d="M2307 3688 c-42 -52 -34 -61 27 -30 25 12 36 24 36 40 0 33 -31 28
-63 -10z"/>
<path d="M3870 3704 c0 -9 7 -14 17 -12 25 5 28 28 4 28 -12 0 -21 -6 -21 -16z"/>
<path d="M1900 3690 c0 -13 12 -28 30 -38 17 -9 33 -25 36 -34 3 -10 14 -18
25 -18 10 0 19 -7 19 -15 0 -8 7 -15 15 -15 8 0 15 6 15 14 0 7 14 24 30 38
26 21 28 27 16 37 -12 10 -20 9 -43 -6 -15 -9 -31 -22 -35 -28 -4 -5 -8 2 -8
18 0 22 4 27 25 27 27 0 34 14 11 23 -18 7 -56 -3 -56 -14 0 -5 -7 -9 -15 -9
-8 0 -15 5 -15 10 0 6 -7 10 -15 10 -8 0 -15 5 -15 10 0 6 -4 10 -10 10 -5 0
-10 -9 -10 -20z"/>
<path d="M2075 3595 c-14 -13 -25 -31 -25 -40 0 -19 29 -20 36 0 4 8 16 15 29
15 13 0 26 7 29 16 15 40 -32 46 -69 9z"/>
<path d="M2236 3585 c4 -8 8 -15 10 -15 2 0 4 7 4 15 0 8 -4 15 -10 15 -5 0
-7 -7 -4 -15z"/>
<path d="M2663 3593 c-8 -3 -13 -22 -13 -47 0 -23 -5 -47 -12 -54 -6 -6 -9
-15 -5 -18 7 -8 37 20 37 35 0 20 38 12 43 -9 8 -30 35 -15 29 16 -2 13 -8 24
-13 24 -5 0 -9 6 -9 14 0 15 -27 47 -38 45 -4 0 -13 -3 -19 -6z"/>
<path d="M3507 3583 c-20 -20 9 -93 37 -93 5 0 16 -8 25 -18 17 -19 66 -52 77
-52 4 0 -7 15 -24 33 -63 65 -74 79 -84 108 -10 29 -19 35 -31 22z"/>
<path d="M1971 3563 c-1 -7 -10 -13 -20 -13 -11 0 -26 -7 -35 -15 -8 -8 -22
-15 -31 -15 -9 0 -34 -18 -56 -40 -22 -22 -43 -40 -47 -40 -13 0 -62 -47 -55
-54 11 -11 41 -7 46 7 7 15 27 -11 21 -27 -7 -19 10 -33 49 -39 28 -4 37 -2
37 9 0 8 -9 14 -20 14 -11 0 -20 4 -20 9 0 5 -8 12 -17 14 -10 3 1 5 24 6 42
1 43 2 54 46 6 25 15 45 20 45 5 0 9 5 9 11 0 6 6 17 13 24 33 37 38 47 34 58
-4 9 -6 9 -6 0z"/>
<path d="M2505 3543 c-11 -3 -24 -9 -29 -14 -6 -5 -23 -9 -39 -9 -22 0 -28 -4
-23 -15 4 -10 -1 -15 -14 -15 -22 0 -25 -8 -10 -30 6 -10 10 -11 10 -2 0 7 14
12 35 12 24 0 35 -5 35 -15 0 -8 6 -15 14 -15 8 0 18 -9 21 -20 7 -21 45 -28
45 -9 0 8 4 8 13 1 25 -20 92 -18 101 3 4 11 -3 19 -22 26 -15 6 -38 21 -51
35 -13 15 -29 23 -38 20 -8 -3 -19 -6 -24 -6 -5 0 -9 -4 -9 -10 0 -5 9 -10 20
-10 21 0 27 -15 10 -25 -17 -10 -49 5 -55 26 -7 21 15 49 39 49 9 0 16 7 16
15 0 15 -9 17 -45 8z"/>
<path d="M2284 3524 c3 -9 6 -18 6 -20 0 -2 7 -4 15 -4 19 0 19 7 1 26 -19 19
-30 18 -22 -2z"/>
<path d="M2325 3500 c-8 -24 11 -60 30 -60 18 0 19 14 5 41 -7 13 -7 19 0 19
5 0 10 5 10 10 0 18 -39 10 -45 -10z"/>
<path d="M3685 3480 c3 -5 8 -10 11 -10 2 0 4 5 4 10 0 6 -5 10 -11 10 -5 0
-7 -4 -4 -10z"/>
<path d="M2410 3415 c0 -8 7 -15 15 -15 8 0 15 4 15 9 0 5 -7 11 -15 15 -9 3
-15 0 -15 -9z"/>
<path d="M2705 3410 c-3 -5 -1 -10 4 -10 6 0 11 5 11 10 0 6 -2 10 -4 10 -3 0
-8 -4 -11 -10z"/>
<path d="M1603 3315 c0 -22 2 -30 4 -17 2 12 2 30 0 40 -3 9 -5 -1 -4 -23z"/>
<path d="M2000 3264 c0 -8 9 -14 20 -14 11 0 20 4 20 9 0 5 -9 11 -20 14 -13
3 -20 0 -20 -9z"/>
<path d="M1602 3250 c0 -14 2 -19 5 -12 2 6 2 18 0 25 -3 6 -5 1 -5 -13z"/>
<path d="M2120 3240 c0 -5 4 -10 9 -10 6 0 13 5 16 10 3 6 -1 10 -9 10 -9 0
-16 -4 -16 -10z"/>
<path d="M2043 3219 c-9 -9 -8 -15 2 -26 18 -17 9 -43 -15 -43 -10 0 -22 -9
-25 -20 -4 -11 -15 -20 -26 -20 -11 0 -22 -7 -25 -15 -4 -8 -12 -15 -20 -15
-19 0 -91 -73 -86 -88 6 -19 23 -14 48 13 13 14 29 25 37 25 8 0 19 11 25 25
7 15 20 25 32 25 11 0 20 6 20 13 0 18 37 40 43 24 6 -18 -3 -37 -17 -37 -22
0 -50 -77 -39 -106 4 -11 7 -11 19 1 8 7 14 18 14 24 0 6 7 11 15 11 8 0 15 9
15 20 0 12 11 32 25 46 23 22 25 54 4 54 -5 0 -9 9 -9 20 0 11 4 20 9 20 5 0
13 -9 16 -20 7 -23 25 -27 25 -5 0 12 -64 85 -74 85 -1 0 -7 -5 -13 -11z"/>
<path d="M1960 3210 c0 -5 9 -10 19 -10 11 0 21 -6 24 -12 2 -7 7 -10 11 -7 3
3 4 14 0 23 -7 17 -54 23 -54 6z"/>
<path d="M1578 3180 c-7 -24 -3 -38 8 -28 3 4 4 17 2 30 l-3 23 -7 -25z"/>
<path d="M2290 3130 c-8 -11 -24 -20 -35 -20 -18 0 -55 -31 -55 -45 0 -13 -45
-54 -65 -59 -13 -3 -27 -15 -30 -26 -4 -13 -15 -20 -30 -20 -24 0 -55 -23 -55
-41 0 -5 8 -9 18 -9 15 0 15 -2 2 -11 -11 -8 -12 -12 -2 -16 14 -5 17 -43 3
-43 -5 0 -11 6 -14 13 -2 6 -7 9 -11 5 -10 -8 16 -48 31 -48 7 0 13 -7 13 -15
0 -8 -4 -15 -9 -15 -5 0 -11 -9 -14 -21 -6 -24 32 -69 58 -69 9 0 15 -9 15
-25 0 -14 5 -25 10 -25 25 0 3 73 -29 97 -9 6 -13 14 -9 18 9 9 48 -31 48 -50
0 -21 7 -19 40 15 36 36 36 40 9 40 -25 0 -47 20 -41 38 4 14 32 16 32 2 0 -5
16 -10 35 -10 32 0 35 -2 35 -30 0 -19 5 -30 14 -30 21 0 30 -32 11 -42 -21
-12 -19 -35 4 -48 38 -20 46 -12 49 45 3 50 1 55 -18 55 -12 0 -28 7 -36 15
-13 13 -13 17 2 40 12 19 14 28 5 39 -6 7 -9 21 -5 30 5 13 -1 16 -30 16 -20
0 -36 -4 -36 -10 0 -5 -11 -10 -25 -10 -14 0 -25 -6 -25 -12 0 -7 -5 -5 -11 5
-17 30 -3 46 43 49 37 3 43 6 46 28 2 13 13 32 23 41 10 9 19 25 19 35 0 11 7
28 15 38 8 11 15 28 15 38 0 10 6 18 14 18 8 0 16 7 20 15 3 8 12 15 21 15 8
0 15 5 15 10 0 19 -65 11 -80 -10z m-43 -296 c-3 -3 -12 -4 -19 -1 -8 3 -5 6
6 6 11 1 17 -2 13 -5z"/>
<path d="M1574 3096 c-11 -29 3 -47 28 -37 31 11 57 0 73 -30 l13 -24 7 26 c4
15 5 38 3 50 -3 22 -9 24 -61 27 -44 2 -59 0 -63 -12z"/>
<path d="M2476 2995 c4 -8 1 -15 -5 -15 -6 0 -43 -31 -81 -70 -38 -38 -77 -70
-85 -70 -17 0 -20 -16 -4 -25 6 -4 16 1 23 10 11 15 16 16 35 5 21 -11 22 -10
16 9 -5 15 -2 21 9 21 9 0 16 4 16 8 0 14 73 92 86 92 6 0 14 11 16 25 4 19 1
25 -13 25 -12 0 -16 -5 -13 -15z"/>
<path d="M2290 2903 c8 -3 18 -11 22 -17 5 -7 8 -4 8 7 0 11 -7 17 -22 16 -16
0 -18 -2 -8 -6z"/>
<path d="M2450 2802 c0 -4 5 -13 11 -19 8 -8 8 -17 0 -31 -17 -32 -13 -42 18
-42 16 0 32 -6 34 -12 3 -7 6 -3 6 9 1 13 -6 23 -16 26 -16 4 -16 5 -1 6 9 0
20 10 23 21 3 11 11 20 16 20 5 0 9 7 9 15 0 11 -12 15 -50 15 -27 0 -50 -4
-50 -8z"/>
<path d="M2330 2783 c8 -3 21 -10 28 -16 8 -7 12 -5 12 7 0 11 -8 16 -27 15
-16 0 -22 -3 -13 -6z"/>
<path d="M2198 2718 c-7 -20 3 -88 13 -88 5 0 6 -16 3 -35 -3 -22 -1 -35 5
-35 6 0 11 11 11 25 0 16 6 25 15 25 19 0 20 16 1 23 -8 3 -18 26 -21 51 -7
45 -18 59 -27 34z"/>
<path d="M2410 2720 c0 -5 7 -10 15 -10 8 0 15 5 15 10 0 6 -7 10 -15 10 -8 0
-15 -4 -15 -10z"/>
<path d="M2665 2700 c3 -5 10 -10 16 -10 5 0 9 5 9 10 0 6 -7 10 -16 10 -8 0
-12 -4 -9 -10z"/>
<path d="M2520 2673 c0 -5 5 -15 10 -23 8 -12 10 -11 10 8 0 12 -4 22 -10 22
-5 0 -10 -3 -10 -7z"/>
<path d="M2100 2620 c0 -5 7 -10 15 -10 8 0 15 5 15 10 0 6 -7 10 -15 10 -8 0
-15 -4 -15 -10z"/>
<path d="M1883 2595 c-17 -19 -16 -25 2 -25 8 0 15 9 15 20 0 23 -1 24 -17 5z"/>
<path d="M1851 2524 c0 -11 3 -14 6 -6 3 7 2 16 -1 19 -3 4 -6 -2 -5 -13z"/>
<path d="M4761 3782 c-10 -19 -9 -23 4 -28 21 -8 23 -4 15 26 l-6 25 -13 -23z"/>
<path d="M7336 3421 c-4 -5 -3 -16 0 -25 6 -15 8 -15 19 1 13 18 11 33 -5 33
-5 0 -11 -4 -14 -9z"/>
<path d="M3810 3461 c-11 -27 -10 -72 2 -194 2 -21 0 -41 -4 -43 -12 -7 -10
-124 2 -124 11 0 26 53 35 128 8 60 -4 262 -15 262 -4 0 -13 -13 -20 -29z"/>
<path d="M3703 3013 c-7 -18 11 -94 31 -133 8 -14 25 -47 40 -75 l26 -50 -3
53 c-2 29 -9 58 -15 64 -7 7 -12 20 -12 31 0 10 -7 25 -15 34 -8 8 -13 19 -10
24 6 8 -21 69 -31 69 -2 0 -7 -7 -11 -17z"/>
<path d="M4970 2715 c-13 -14 -21 -28 -17 -31 5 -5 57 42 57 52 0 11 -19 1
-40 -21z"/>
<path d="M4922 2628 c-7 -7 -24 -12 -40 -13 -23 0 -27 -4 -24 -27 2 -20 -4
-32 -23 -44 -37 -24 -31 -34 23 -33 26 1 39 3 28 6 -14 4 -17 11 -12 36 8 41
11 42 36 17 17 -17 29 -21 52 -16 17 3 40 6 51 6 19 0 20 1 2 20 -22 24 -35
26 -35 5 0 -9 -9 -15 -25 -15 -30 0 -33 16 -5 25 25 8 27 45 2 45 -10 0 -23
-5 -30 -12z"/>
<path d="M4778 2493 c7 -3 16 -2 19 1 4 3 -2 6 -13 5 -11 0 -14 -3 -6 -6z"/>
<path d="M5016 2484 c-9 -22 3 -32 14 -14 12 19 12 30 1 30 -5 0 -12 -7 -15
-16z"/>
<path d="M5087 2418 c-6 -45 -3 -58 16 -58 7 0 13 19 14 50 2 64 -22 70 -30 8z"/>
<path d="M4986 2432 c-5 -9 33 -47 40 -40 2 2 1 14 -3 26 -5 22 -27 30 -37 14z"/>
<path d="M5187 2418 c-7 -27 3 -40 22 -29 11 7 11 12 -1 30 l-15 22 -6 -23z"/>
<path d="M4962 2352 c-16 -35 -15 -62 2 -62 17 0 31 53 19 74 -6 12 -11 9 -21
-12z"/>
<path d="M4840 2330 c0 -5 5 -10 10 -10 6 0 10 5 10 10 0 6 -4 10 -10 10 -5 0
-10 -4 -10 -10z"/>
<path d="M5100 2309 c0 -7 25 -19 41 -19 4 0 6 6 3 13 -5 13 -44 18 -44 6z"/>
<path d="M5210 2266 c0 -9 7 -16 16 -16 9 0 14 5 12 12 -6 18 -28 21 -28 4z"/>
<path d="M4938 2243 c7 -3 16 -2 19 1 4 3 -2 6 -13 5 -11 0 -14 -3 -6 -6z"/>
<path d="M5000 2155 c0 -9 6 -12 15 -9 8 4 15 10 15 15 0 5 -7 9 -15 9 -8 0
-15 -7 -15 -15z"/>
<path d="M6878 3343 c7 -3 16 -2 19 1 4 3 -2 6 -13 5 -11 0 -14 -3 -6 -6z"/>
<path d="M6892 3309 c2 -7 10 -15 17 -17 8 -3 12 1 9 9 -2 7 -10 15 -17 17 -8
3 -12 -1 -9 -9z"/>
<path d="M6851 3251 c-7 -5 -12 -14 -10 -20 3 -6 9 -7 18 -2 7 5 12 14 10 20
-3 6 -9 7 -18 2z"/>
<path d="M6130 2610 c0 -5 5 -10 10 -10 6 0 10 5 10 10 0 6 -4 10 -10 10 -5 0
-10 -4 -10 -10z"/>
<path d="M5446 2531 c-4 -7 -5 -15 -2 -18 9 -9 19 4 14 18 -4 11 -6 11 -12 0z"/>
<path d="M5636 2521 c-4 -5 3 -7 14 -4 23 6 26 13 6 13 -8 0 -17 -4 -20 -9z"/>
<path d="M5515 2500 c3 -5 8 -10 11 -10 2 0 4 5 4 10 0 6 -5 10 -11 10 -5 0
-7 -4 -4 -10z"/>
<path d="M5748 2358 c9 -9 15 -9 24 0 9 9 7 12 -12 12 -19 0 -21 -3 -12 -12z"/>
<path d="M5724 2266 c-4 -10 -2 -22 4 -28 8 -8 13 -7 18 6 4 10 2 22 -4 28 -8
8 -13 7 -18 -6z"/>
<path d="M6196 2201 c-11 -4 -15 -10 -9 -14 5 -3 19 0 29 8 20 15 11 18 -20 6z"/>
<path d="M5780 2176 c0 -11 9 -16 26 -16 31 0 28 23 -4 28 -15 2 -22 -2 -22
-12z"/>
<path d="M6034 2179 c-3 -6 -1 -16 5 -22 9 -9 14 -8 21 3 9 15 4 30 -10 30 -5
0 -12 -5 -16 -11z"/>
<path d="M6095 2130 c3 -5 8 -10 11 -10 2 0 4 5 4 10 0 6 -5 10 -11 10 -5 0
-7 -4 -4 -10z"/>
<path d="M5860 2111 c0 -6 5 -13 10 -16 6 -3 10 1 10 9 0 9 -4 16 -10 16 -5 0
-10 -4 -10 -9z"/>
<path d="M3190 3160 c0 -5 -10 -18 -21 -29 l-21 -20 31 -33 c17 -18 31 -36 31
-40 0 -5 9 -8 20 -8 22 0 24 14 11 72 -10 45 -51 91 -51 58z"/>
<path d="M3010 3100 c-12 -8 -12 -10 3 -16 21 -8 35 2 21 16 -5 5 -15 6 -24 0z"/>
<path d="M3368 2925 c2 -14 8 -25 12 -25 4 0 5 11 2 25 -2 14 -8 25 -12 25 -4
0 -5 -11 -2 -25z"/>
<path d="M3410 2846 c0 -8 7 -16 15 -20 17 -6 18 -4 9 18 -8 20 -24 21 -24 2z"/>
<path d="M2960 2770 c0 -5 5 -10 10 -10 6 0 10 5 10 10 0 6 -4 10 -10 10 -5 0
-10 -4 -10 -10z"/>
<path d="M3390 2555 c0 -5 5 -17 10 -25 5 -8 10 -10 10 -5 0 6 -5 17 -10 25
-5 8 -10 11 -10 5z"/>
<path d="M9841 2941 c-9 -15 -7 -20 11 -24 27 -8 38 1 18 13 -10 7 -11 10 -2
10 6 0 12 5 12 10 0 17 -29 11 -39 -9z"/>
<path d="M9520 2740 c0 -5 5 -10 11 -10 5 0 7 5 4 10 -3 6 -8 10 -11 10 -2 0
-4 -4 -4 -10z"/>
<path d="M9506 2505 c6 -14 35 -35 48 -35 3 0 6 12 6 28 -1 25 -2 26 -14 9
-12 -15 -14 -16 -20 -2 -3 8 -10 15 -15 15 -6 0 -8 -7 -5 -15z"/>
<path d="M9590 2065 c0 -26 21 -66 52 -97 17 -17 18 -16 24 9 5 18 2 30 -10
38 -9 7 -16 17 -16 24 0 11 -35 51 -45 51 -3 0 -5 -11 -5 -25z"/>
<path d="M1436 2412 c19 -12 35 -52 34 -80 -3 -35 21 -92 37 -92 7 0 13 -9 13
-20 0 -13 7 -20 20 -20 10 0 24 -8 29 -17 6 -10 11 -14 11 -9 0 14 40 -31 40
-46 0 -8 5 -6 11 5 14 23 3 54 -22 62 -12 4 -19 15 -19 31 0 14 -6 24 -14 24
-8 0 -20 16 -26 35 -6 19 -15 35 -20 35 -5 0 -12 10 -15 21 -9 28 -58 79 -76
79 -9 0 -10 -3 -3 -8z"/>
<path d="M3053 2345 c-18 -20 -16 -25 8 -25 12 0 19 -5 16 -12 -2 -7 -16 -12
-31 -11 -17 1 -26 -3 -26 -13 0 -8 -7 -14 -15 -14 -8 0 -15 -7 -15 -15 0 -8
-4 -15 -10 -15 -5 0 -10 -7 -10 -15 0 -8 -10 -20 -22 -26 -13 -7 -30 -20 -39
-31 -9 -10 -30 -21 -47 -24 -18 -4 -34 -14 -37 -25 -3 -10 -15 -21 -26 -24
-10 -4 -19 -10 -19 -13 0 -4 -12 -21 -27 -38 -34 -37 -63 -80 -63 -94 0 -5 -7
-18 -16 -27 -51 -58 -75 -98 -61 -101 16 -3 107 56 107 70 0 4 5 8 11 8 6 0
17 6 24 13 33 29 45 37 55 37 5 0 10 5 10 10 0 6 9 10 20 10 11 0 23 7 26 15
4 8 17 15 30 15 13 0 24 3 24 8 0 11 46 62 56 62 5 1 18 13 29 27 11 14 27 33
35 42 33 35 50 89 50 155 0 68 -10 82 -37 51z"/>
<path d="M5064 1860 c-22 -9 -27 -30 -43 -193 -11 -104 -6 -125 34 -144 60
-28 65 -19 65 118 0 67 5 140 12 162 11 35 10 41 -7 53 -21 16 -31 16 -61 4z"/>
<path d="M4897 1723 c-3 -16 -8 -35 -12 -43 -3 -9 1 -24 10 -35 13 -17 16 -18
25 -5 17 26 10 110 -10 110 -4 0 -10 -12 -13 -27z"/>
<path d="M5178 1563 c-5 -23 11 -73 24 -73 13 0 5 83 -9 87 -6 2 -13 -4 -15
-14z"/>
<path d="M5014 1274 c-7 -3 -40 -8 -75 -12 l-63 -7 -24 -60 c-14 -33 -29 -70
-34 -81 -15 -32 -6 -57 23 -64 41 -11 273 -22 285 -13 6 5 14 59 17 126 l6
117 -62 -1 c-34 0 -67 -3 -73 -5z m4 -46 c-5 -15 -33 -22 -54 -14 -24 9 -6 26
27 26 20 0 29 -4 27 -12z"/>
<path d="M4744 1032 c-32 -21 -43 -84 -20 -114 36 -48 95 14 82 85 -5 29 -11
37 -29 37 -12 0 -27 -4 -33 -8z"/>
<path d="M5835 1553 c-7 -72 -23 -132 -41 -158 -21 -30 -18 -62 9 -69 71 -19
110 9 125 91 22 116 22 142 -1 163 -11 11 -26 20 -31 20 -6 0 -21 3 -33 6 -20
5 -22 1 -28 -53z"/>
<path d="M6025 1576 c-14 -20 -14 -28 -3 -45 18 -29 33 -26 48 9 10 24 10 32
-3 45 -20 20 -24 19 -42 -9z"/>
<path d="M5407 1320 c-21 -25 -22 -49 -1 -78 13 -19 23 -23 62 -20 45 3 47 4
58 45 11 36 10 45 -2 58 -23 23 -96 20 -117 -5z"/>
<path d="M5327 1323 c-11 -10 -8 -43 3 -43 6 0 10 11 10 25 0 26 -2 29 -13 18z"/>
<path d="M5447 983 c-11 -10 -8 -51 3 -58 6 -4 10 8 10 29 0 37 -2 41 -13 29z"/>
<path d="M6970 1570 c0 -5 5 -10 10 -10 6 0 10 5 10 10 0 6 -4 10 -10 10 -5 0
-10 -4 -10 -10z"/>
<path d="M6668 1483 c-10 -2 -18 -9 -18 -14 0 -5 -10 -9 -22 -9 -42 -1 -58
-23 -58 -79 0 -28 4 -51 9 -51 5 0 12 -16 15 -35 4 -19 11 -35 16 -35 6 0 10
-6 10 -13 0 -18 28 -75 41 -83 6 -3 30 -3 54 0 78 12 94 67 60 205 -30 121
-40 132 -107 114z"/>
<path d="M6896 1363 c-4 -13 -4 -28 0 -34 3 -6 9 -33 13 -60 3 -27 11 -49 16
-48 6 0 8 6 7 13 -11 34 -12 96 -3 96 6 0 11 -4 11 -10 0 -5 9 -10 21 -10 15
0 19 -5 15 -15 -3 -8 -1 -15 4 -15 6 0 10 4 10 9 0 5 3 16 6 24 4 11 -5 17
-34 22 -27 4 -43 13 -49 28 l-10 22 -7 -22z"/>
<path d="M6570 1236 c0 -8 5 -18 10 -21 6 -3 10 1 10 9 0 8 -4 18 -10 21 -5 3
-10 -1 -10 -9z"/>
<path d="M6830 1141 c0 -27 18 -71 29 -71 14 0 21 28 14 60 -6 35 -43 44 -43
11z"/>
<path d="M6217 1262 c-20 -22 -23 -88 -4 -95 23 -9 36 7 42 49 9 50 -12 75
-38 46z"/>
<path d="M6367 952 c-9 -21 -17 -53 -17 -70 0 -27 4 -32 24 -32 26 0 36 28 36
101 0 51 -21 51 -43 1z"/>
<path d="M8750 1360 c0 -11 4 -20 9 -20 6 0 9 9 8 20 -1 11 -5 20 -9 20 -4 0
-8 -9 -8 -20z"/>
<path d="M7983 3713 c-18 -7 -16 -23 2 -23 39 0 -8 -111 -56 -132 -15 -7 -25
-16 -23 -20 3 -4 -10 -11 -28 -16 -32 -9 -33 -10 -30 -58 2 -32 10 -55 23 -67
25 -23 28 -147 4 -167 -9 -7 -13 -20 -10 -27 2 -8 -2 -47 -10 -86 -9 -40 -20
-97 -26 -127 -6 -30 -18 -70 -26 -88 -8 -19 -12 -44 -9 -57 3 -13 2 -27 -4
-30 -5 -3 -9 -38 -9 -78 0 -40 -2 -89 -6 -110 -10 -51 9 -48 27 6 44 125 58
176 58 210 0 30 4 37 20 37 11 0 20 -4 20 -9 0 -17 39 -22 62 -9 43 24 93 38
137 38 l43 0 -7 -37 c-6 -34 -5 -36 9 -23 8 8 16 35 18 60 2 36 0 44 -12 41
-39 -10 -174 -30 -179 -26 -2 3 3 5 12 5 10 0 17 5 17 10 0 6 9 21 20 32 28
30 39 79 45 189 3 83 7 96 27 113 12 10 23 23 23 30 1 19 29 86 36 86 4 0 15
14 23 32 18 35 21 108 5 108 -14 0 -39 26 -39 40 0 8 -9 10 -25 6 -15 -4 -25
-2 -25 4 0 6 -8 9 -18 6 -10 -4 -26 0 -36 7 -17 13 -17 15 -2 45 9 17 16 45
16 62 0 26 -3 30 -27 29 -16 0 -34 -3 -40 -6z m51 -186 c20 -52 20 -69 2 -133
-8 -27 -19 -130 -26 -229 -13 -175 -21 -227 -37 -224 -22 4 -33 -3 -33 -20 0
-14 -10 -20 -37 -24 -47 -8 -70 10 -54 42 6 11 16 31 22 43 15 28 21 168 9
168 -6 0 -10 5 -10 10 0 6 10 10 23 10 14 0 23 6 24 18 4 38 10 59 27 97 30
68 37 97 41 183 6 116 20 133 49 59z m-140 -92 c3 -8 1 -15 -4 -15 -6 0 -10 7
-10 15 0 8 2 15 4 15 2 0 6 -7 10 -15z"/>
<path d="M8261 3354 c0 -11 3 -14 6 -6 3 7 2 16 -1 19 -3 4 -6 -2 -5 -13z"/>
<path d="M8210 3259 c0 -11 5 -17 10 -14 6 3 10 13 10 21 0 8 -4 14 -10 14 -5
0 -10 -9 -10 -21z"/>
<path d="M8187 3224 c-3 -3 -3 -12 -1 -19 3 -7 1 -16 -5 -19 -6 -4 -8 -13 -4
-21 3 -8 1 -15 -4 -15 -10 0 -33 -43 -33 -60 0 -6 12 -10 26 -10 21 0 24 3 15
14 -9 10 -8 16 4 26 9 7 13 20 10 28 -3 8 -2 24 1 36 7 21 7 21 15 1 6 -16 8
-14 8 13 1 30 -15 43 -32 26z"/>
<path d="M7938 2536 c-8 -7 -28 -17 -46 -20 -18 -4 -34 -15 -37 -27 -4 -10
-15 -19 -26 -19 -10 0 -19 -5 -19 -11 0 -5 3 -8 8 -6 4 2 25 12 46 22 22 10
49 26 59 36 11 10 24 16 29 13 4 -3 8 2 8 10 0 20 -5 20 -22 2z"/>
<path d="M7446 593 c8 -45 34 -77 34 -44 0 12 -4 21 -10 21 -5 0 -10 14 -10
30 0 17 -5 30 -10 30 -7 0 -8 -14 -4 -37z"/>
<path d="M5416 441 c-9 -14 -26 -164 -26 -230 0 -50 1 -53 23 -47 17 4 32 -4
60 -32 63 -63 97 -102 97 -112 0 -6 9 -10 20 -10 30 0 25 13 -27 67 -46 46
-48 50 -47 104 1 50 21 125 45 171 17 33 11 58 -15 58 -21 0 -25 -6 -31 -47
-6 -47 -19 -94 -36 -141 -7 -18 -16 -23 -37 -20 l-27 3 2 79 c2 44 7 95 13
115 9 34 -1 64 -14 42z"/>
<path d="M6095 431 c3 -11 1 -22 -5 -26 -5 -3 -10 -40 -10 -81 0 -43 -4 -74
-10 -74 -5 0 -10 -11 -10 -25 0 -18 -5 -25 -19 -25 -11 0 -23 -5 -27 -11 -16
-26 -29 17 -32 111 l-4 100 -30 0 c-31 0 -68 -27 -52 -38 9 -7 34 -153 34
-201 0 -20 -11 -37 -60 -98 -6 -7 -10 -15 -10 -18 0 -4 -8 -14 -17 -23 -16
-16 -15 -17 6 -20 14 -2 28 4 37 16 22 32 83 92 93 92 5 0 14 7 21 15 9 11 33
15 86 15 72 0 73 0 118 -44 25 -24 46 -48 46 -54 0 -11 23 -22 46 -22 10 0 9
5 -6 20 -11 11 -20 33 -20 50 0 29 27 110 41 120 3 3 10 25 14 50 4 25 12 54
18 65 7 13 7 20 -2 23 -6 2 -11 10 -11 18 0 8 -10 14 -25 14 -19 0 -26 -6 -30
-27 -3 -16 -10 -42 -15 -59 -6 -17 -10 -42 -10 -57 0 -14 -4 -29 -10 -32 -5
-3 -10 -20 -10 -38 0 -24 -3 -28 -12 -19 -7 7 -20 12 -31 12 -10 0 -25 7 -33
15 -8 8 -22 19 -31 24 -14 8 -15 13 -3 42 8 19 17 36 21 39 4 3 8 42 10 88 l4
82 -33 0 c-28 0 -32 -3 -27 -19z"/>
<path d="M5283 335 c-15 -17 -17 -69 -3 -94 5 -10 12 -62 16 -115 4 -53 11
-96 15 -96 5 0 9 7 9 16 0 8 11 30 25 48 14 18 25 41 25 52 -1 18 -1 18 -15 1
-13 -18 -14 -18 -23 0 -5 10 -12 56 -15 102 -6 88 -14 108 -34 86z"/>
<path d="M7441 294 c0 -11 3 -14 6 -6 3 7 2 16 -1 19 -3 4 -6 -2 -5 -13z"/>
<path d="M7442 240 c0 -14 2 -19 5 -12 2 6 2 18 0 25 -3 6 -5 1 -5 -13z"/>
<path d="M4833 138 c-19 -9 -39 -37 -31 -43 2 -1 21 -5 44 -9 40 -6 41 -5 36
19 -3 17 0 25 9 25 11 0 11 2 -1 10 -18 12 -29 12 -57 -2z"/>
</g>
</svg>
