<?xml version="1.0" encoding="utf-8"?>
<svg viewBox="-123.354 3.941 1302 492.118" xmlns="http://www.w3.org/2000/svg">
  <g id="Ressource" stroke="none" stroke-width="1" fill="none" fill-rule="evenodd" transform="matrix(1, 0, 0, 1, -123.35441, 3.940984)">
    <g id="wave_background">
      <g id="Group-4">
        <path d="M0,1.89326617e-29 L1300,-2.84217094e-14 C1299.84369,99.0658466 1299.84369,259.045733 1300,479.93966 C939.379367,522.288692 978.893507,439.694844 650,450.952014 C321.106493,462.209185 306.589562,511.200484 0,450.952014 C1,327.508342 1,177.191004 0,1.89326617e-29 Z" id="Wave" opacity="0.15" style="fill: rgb(0, 0, 107);"/>
        <path d="M1.00076864,0 L925.701255,0 L1302,0 C1302,223.960943 1302,366.849893 1302,428.66685 C1221.6052,416.744841 1147.81368,399.334739 958.281774,416.744841 C768.749863,434.154944 701.824308,503.789515 426.321989,437.77475 C242.653776,393.764907 100.880036,397.003272 1.00076864,447.489845 L1.00076864,0 Z" id="Wave" transform="translate(651.500384, 232.828869) scale(-1, 1) translate(-651.500384, -232.828869) " style="fill: rgb(0, 0, 107);"/>
      </g>
    </g>
  </g>
</svg>