<?xml version="1.0" encoding="utf-8"?>
<svg viewBox="-123.354 158.719 1302 135" xmlns="http://www.w3.org/2000/svg">
  <g id="Ressource" stroke="none" stroke-width="1" fill="none" fill-rule="evenodd" transform="matrix(1, 0, 0, 1, -118.354349, 158.718783)">
    <g id="wave_header">
      <g id="Group-4-Copy" transform="translate(-5.000000, 0.000000)">
        <path d="M0,7.64775368e-15 L1300,0 C1299.84369,26.6567778 1299.84369,69.7043914 1300,129.142841 C990.95958,139.998481 1034.96657,114.449017 701.50349,123.93182 C368.040412,133.414622 390.605992,144.317251 0,121.342804 C1,88.1264067 1,47.6788053 0,7.64775368e-15 Z" id="Wave" opacity="0.15" style="fill: rgb(0, 0, 107);"/>
        <path d="M1,0 L925.701033,0 L1302,0 C1302,60.1195162 1302,98.476269 1302,115.070259 C1221.60515,111.869944 1147.81359,107.19642 958.281571,111.869944 C768.749548,116.543469 701.823954,135.235999 426.321472,117.515161 C242.65315,105.701268 100.879326,106.570567 1,120.123056 L1,0 Z" id="Wave" transform="translate(651.500000, 62.500000) scale(-1, 1) translate(-651.500000, -62.500000) " style="fill: rgb(0, 0, 107);"/>
      </g>
    </g>
  </g>
</svg>